<svg width="20" height="17" viewBox="0 0 20 17" fill="none" xmlns="http://www.w3.org/2000/svg">
<path d="M19.334 8.31982C19.334 8.7628 19.0048 9.1289 18.5777 9.18684L18.459 9.19482L0.958984 9.19482C0.475737 9.19482 0.0839844 8.80307 0.0839844 8.31982C0.0839844 7.87685 0.413164 7.51075 0.840252 7.45281L0.958984 7.44482L18.459 7.44482C18.9422 7.44482 19.334 7.83658 19.334 8.31982Z" fill="#0F172A"/>
<path d="M8.63496 14.7291C8.97741 15.0701 8.9786 15.6241 8.63763 15.9665C8.32765 16.2779 7.84161 16.3071 7.49851 16.0537L7.40019 15.9692L0.34186 8.94121C0.0296164 8.63031 0.00121212 8.14251 0.256659 7.79942L0.341808 7.70116L7.40014 0.671994C7.74256 0.330994 8.29658 0.332141 8.63758 0.674556C8.94758 0.985843 8.97481 1.47201 8.71994 1.81403L8.63501 1.91199L2.19964 8.32151L8.63496 14.7291Z" fill="#0F172A"/>
</svg>
