<svg width="22" height="22" viewBox="0 0 22 22" fill="none" xmlns="http://www.w3.org/2000/svg">
<g clip-path="url(#clip0_1142_5104)">
<path d="M10.9993 16.5277L17.6305 20.6866C17.6999 20.7302 17.7797 20.7544 17.8617 20.7566C17.9436 20.7589 18.0246 20.7392 18.0963 20.6995C18.168 20.6598 18.2278 20.6016 18.2693 20.531C18.3109 20.4604 18.3328 20.3799 18.3327 20.2979L10.9993 16.5277ZM10.9993 16.5277L4.36818 20.6857L10.9993 16.5277ZM11.265 16.1041L10.9994 15.9375L10.7337 16.1041L4.16602 20.2223V2.75016C4.16602 2.63966 4.20991 2.53368 4.28805 2.45553C4.36619 2.37739 4.47218 2.3335 4.58268 2.3335H17.416C17.5265 2.3335 17.6325 2.37739 17.7106 2.45553C17.7888 2.53367 17.8327 2.63966 17.8327 2.75016V20.2232L11.265 16.1041Z" stroke="#0F172A"/>
</g>
<defs>
<clipPath id="clip0_1142_5104">
<rect width="22" height="22" fill="white"/>
</clipPath>
</defs>
</svg>
