<svg width="24" height="25" viewBox="0 0 24 25" fill="none" xmlns="http://www.w3.org/2000/svg">
<path d="M3.50157 24.5H20.2482C22.0038 24.5 23.4305 23.0733 23.4305 21.3178V5.45998C23.4305 3.70442 22.0038 2.27774 20.2482 2.27774H18.986V1.38887C18.986 0.899978 18.586 0.5 18.0971 0.5C17.6082 0.5 17.2082 0.899978 17.2082 1.38887V2.27774H6.54159V1.38887C6.54159 0.899978 6.14154 0.5 5.65265 0.5C5.16375 0.5 4.76377 0.899978 4.76377 1.38887V2.27774H3.50157C1.74601 2.27774 0.319336 3.70442 0.319336 5.45998V21.3178C0.319336 23.0733 1.74601 24.5 3.50157 24.5ZM2.09716 5.45998C2.09716 4.68667 2.72826 4.05556 3.50157 4.05556H4.76377V4.94444C4.76377 5.43333 5.16375 5.83331 5.65265 5.83331C6.14154 5.83331 6.54152 5.43333 6.54152 4.94444V4.05556H17.2082V4.94444C17.2082 5.43333 17.6082 5.83331 18.0971 5.83331C18.586 5.83331 18.986 5.43333 18.986 4.94444V4.05556H20.2482C21.0215 4.05556 21.6526 4.68667 21.6526 5.45998V8.05556H2.09716V5.45998ZM2.09716 9.83331H21.6527V21.3178C21.6527 22.0911 21.0216 22.7222 20.2483 22.7222H3.50157C2.72826 22.7222 2.09716 22.0911 2.09716 21.3178V9.83331Z" fill="#B6B6B6"/>
</svg>
