<svg width="16" height="20" viewBox="0 0 16 20" fill="none" xmlns="http://www.w3.org/2000/svg">
<path d="M7.99935 15.5277L14.6305 19.6866C14.6999 19.7302 14.7797 19.7544 14.8617 19.7566C14.9436 19.7589 15.0246 19.7392 15.0963 19.6995C15.168 19.6598 15.2278 19.6016 15.2693 19.531C15.3109 19.4604 15.3328 19.3799 15.3327 19.2979L7.99935 15.5277ZM7.99935 15.5277L1.36818 19.6857L7.99935 15.5277ZM8.26501 15.1041L7.99938 14.9375L7.73373 15.1041L1.16602 19.2223V1.75016C1.16602 1.63966 1.20991 1.53368 1.28805 1.45553C1.36619 1.37739 1.47218 1.3335 1.58268 1.3335H14.416C14.5265 1.3335 14.6325 1.37739 14.7106 1.45553C14.7888 1.53367 14.8327 1.63966 14.8327 1.75016V19.2232L8.26501 15.1041Z" fill="#0F172A" stroke="#0F172A"/>
</svg>
