<svg width="18" height="23" viewBox="0 0 18 23" fill="none" xmlns="http://www.w3.org/2000/svg">
<path d="M16.8461 22.75C16.6877 22.7499 16.5333 22.7025 16.4037 22.6143L9.12546 17.6658L1.84726 22.6157C1.73147 22.6944 1.59568 22.7407 1.45468 22.7495C1.31369 22.7584 1.17289 22.7295 1.04764 22.666C0.922384 22.6025 0.81747 22.5068 0.744325 22.3894C0.67118 22.2719 0.632609 22.1373 0.632813 22V3.85C0.633835 2.89553 1.0246 1.98043 1.71937 1.30551C2.41414 0.630596 3.35615 0.250993 4.3387 0.25H13.9122C14.8948 0.250993 15.8368 0.630596 16.5316 1.30551C17.2263 1.98043 17.6171 2.89553 17.6181 3.85V22C17.6181 22.1989 17.5368 22.3897 17.392 22.5303C17.2472 22.671 17.0508 22.75 16.8461 22.75ZM9.12546 16C9.28376 16.0001 9.4382 16.0475 9.56785 16.1357L16.074 20.5592V3.85C16.074 3.29305 15.8462 2.7589 15.4408 2.36508C15.0354 1.97125 14.4856 1.75 13.9122 1.75H4.3387C3.76536 1.75 3.21551 1.97125 2.8101 2.36508C2.40469 2.7589 2.17693 3.29305 2.17693 3.85V20.5592L8.68307 16.1343C8.8129 16.0465 8.96732 15.9997 9.12546 16Z" fill="#B6B6B6"/>
</svg>
