<svg width="18" height="19" viewBox="0 0 18 19" fill="none" xmlns="http://www.w3.org/2000/svg">
<path d="M4.49284 9.28385H6.32617V11.1172H4.49284V9.28385ZM17.3262 3.78385V16.6172C17.3262 17.1034 17.133 17.5697 16.7892 17.9135C16.4454 18.2574 15.9791 18.4505 15.4928 18.4505H2.65951C1.64201 18.4505 0.826172 17.6255 0.826172 16.6172V3.78385C0.826172 3.29762 1.01933 2.83131 1.36314 2.48749C1.70696 2.14368 2.17327 1.95052 2.65951 1.95052H3.57617V0.117188H5.40951V1.95052H12.7428V0.117188H14.5762V1.95052H15.4928C15.9791 1.95052 16.4454 2.14368 16.7892 2.48749C17.133 2.83131 17.3262 3.29762 17.3262 3.78385ZM2.65951 5.61719H15.4928V3.78385H2.65951V5.61719ZM15.4928 16.6172V7.45052H2.65951V16.6172H15.4928ZM11.8262 11.1172V9.28385H13.6595V11.1172H11.8262ZM8.15951 11.1172V9.28385H9.99284V11.1172H8.15951ZM4.49284 12.9505H6.32617V14.7839H4.49284V12.9505ZM11.8262 14.7839V12.9505H13.6595V14.7839H11.8262ZM8.15951 14.7839V12.9505H9.99284V14.7839H8.15951Z" fill="#848484"/>
</svg>
