<svg width="25" height="24" viewBox="0 0 25 24" fill="none" xmlns="http://www.w3.org/2000/svg">
<path d="M16.7401 22.5H8.01014C7.02288 22.5366 6.06104 22.1822 5.3336 21.5138C4.60615 20.8453 4.17188 19.9168 4.12514 18.93V14.25C4.12514 14.051 4.20416 13.8603 4.34481 13.7196C4.48546 13.579 4.67623 13.5 4.87514 13.5C5.07405 13.5 5.26482 13.579 5.40547 13.7196C5.54612 13.8603 5.62514 14.051 5.62514 14.25V18.93C5.67123 19.519 5.94722 20.0664 6.39347 20.4537C6.83972 20.841 7.42042 21.0372 8.01014 21H16.7401C17.3299 21.0372 17.9106 20.841 18.3568 20.4537C18.8031 20.0664 19.079 19.519 19.1251 18.93V14.25C19.1251 14.051 19.2042 13.8603 19.3448 13.7196C19.4855 13.579 19.6762 13.5 19.8751 13.5C20.0741 13.5 20.2648 13.579 20.4055 13.7196C20.5461 13.8603 20.6251 14.051 20.6251 14.25V18.93C20.5784 19.9168 20.1441 20.8453 19.4167 21.5138C18.6892 22.1822 17.7274 22.5366 16.7401 22.5ZM22.6576 12.5325C22.7279 12.4627 22.7837 12.3798 22.8218 12.2884C22.8599 12.197 22.8795 12.099 22.8795 12C22.8795 11.9009 22.8599 11.8029 22.8218 11.7115C22.7837 11.6201 22.7279 11.5372 22.6576 11.4675L12.9076 1.71745C12.8379 1.64716 12.755 1.59136 12.6636 1.55329C12.5722 1.51521 12.4741 1.49561 12.3751 1.49561C12.2761 1.49561 12.1781 1.51521 12.0867 1.55329C11.9953 1.59136 11.9124 1.64716 11.8426 1.71745L2.09264 11.4675C1.95141 11.6087 1.87207 11.8002 1.87207 12C1.87207 12.1997 1.95141 12.3912 2.09264 12.5325C2.23387 12.6737 2.42541 12.753 2.62514 12.753C2.82487 12.753 3.01641 12.6737 3.15764 12.5325L12.3751 3.30745L21.5926 12.5325C21.6624 12.6027 21.7453 12.6585 21.8367 12.6966C21.9281 12.7347 22.0261 12.7543 22.1251 12.7543C22.2241 12.7543 22.3222 12.7347 22.4136 12.6966C22.505 12.6585 22.5879 12.6027 22.6576 12.5325Z" fill="#B6B6B6"/>
</svg>
