<svg width="25" height="25" viewBox="0 0 25 25" fill="none" xmlns="http://www.w3.org/2000/svg">
<g clip-path="url(#clip0_1136_4532)">
<path d="M12.4592 12.0609C14.0021 12.0609 15.3379 11.4913 16.4297 10.3674C17.5212 9.24364 18.0747 7.8687 18.0747 6.28026C18.0747 4.69237 17.5213 3.31726 16.4296 2.19317C15.3378 1.06964 14.0019 0.5 12.4592 0.5C10.9162 0.5 9.58052 1.06964 8.48891 2.19336C7.39729 3.31707 6.84375 4.69219 6.84375 6.28026C6.84375 7.8687 7.39729 9.24382 8.48891 10.3675C9.58087 11.4911 10.9167 12.0609 12.4592 12.0609ZM9.45512 3.1878C10.2927 2.32556 11.2753 1.90643 12.4592 1.90643C13.643 1.90643 14.6257 2.32556 15.4635 3.1878C16.3011 4.05023 16.7085 5.06188 16.7085 6.28026C16.7085 7.49901 16.3011 8.51048 15.4635 9.37291C14.6257 10.2353 13.643 10.6545 12.4592 10.6545C11.2757 10.6545 10.2931 10.2352 9.45512 9.37291C8.61733 8.51067 8.21 7.49901 8.21 6.28026C8.21 5.06188 8.61733 4.05023 9.45512 3.1878Z" fill="#B6B6B6"/>
<path d="M22.284 18.9546C22.2525 18.487 22.1888 17.9769 22.0951 17.4382C22.0004 16.8954 21.8786 16.3824 21.7327 15.9134C21.5819 15.4288 21.3772 14.9501 21.1237 14.4915C20.861 14.0154 20.5522 13.6008 20.2057 13.2597C19.8434 12.9028 19.3997 12.6159 18.8868 12.4066C18.3755 12.1984 17.809 12.093 17.203 12.093C16.965 12.093 16.7348 12.1935 16.2903 12.4914C16.0168 12.675 15.6968 12.8874 15.3396 13.1224C15.0342 13.3227 14.6204 13.5104 14.1094 13.6803C13.6108 13.8464 13.1046 13.9306 12.6048 13.9306C12.1053 13.9306 11.5991 13.8464 11.1001 13.6803C10.5896 13.5106 10.1757 13.3229 9.87086 13.1226C9.51707 12.8898 9.1969 12.6774 8.91923 12.4912C8.47508 12.1933 8.24492 12.0928 8.00692 12.0928C7.40073 12.0928 6.83437 12.1984 6.32334 12.4068C5.81071 12.6157 5.36692 12.9026 5.00423 13.2599C4.65773 13.6012 4.34894 14.0156 4.0864 14.4915C3.83329 14.9501 3.62838 15.4286 3.47754 15.9136C3.33186 16.3826 3.21002 16.8954 3.11539 17.4382C3.02147 17.9761 2.95797 18.4864 2.92649 18.9552C2.89554 19.4135 2.87988 19.8905 2.87988 20.3724C2.87988 21.6252 3.26676 22.6394 4.02966 23.3874C4.78313 24.1255 5.77994 24.4998 6.9925 24.4998H18.2185C19.4307 24.4998 20.4275 24.1255 21.1811 23.3874C21.9442 22.64 22.3311 21.6254 22.3311 20.3722C22.3309 19.8887 22.3151 19.4117 22.284 18.9546ZM20.2391 22.3684C19.7413 22.8562 19.0803 23.0934 18.2183 23.0934H6.9925C6.13035 23.0934 5.46937 22.8562 4.97168 22.3686C4.48342 21.8902 4.24613 21.237 4.24613 20.3724C4.24613 19.9227 4.26054 19.4787 4.28936 19.0524C4.31746 18.6342 4.37491 18.1748 4.46011 17.6866C4.54425 17.2045 4.65133 16.7521 4.77869 16.3425C4.90089 15.9497 5.06755 15.5608 5.27424 15.1862C5.47151 14.8291 5.69847 14.5228 5.94892 14.2759C6.18318 14.045 6.47845 13.8561 6.82637 13.7144C7.14814 13.5832 7.50976 13.5115 7.90233 13.5007C7.95018 13.5269 8.03538 13.5768 8.17341 13.6695C8.45427 13.8579 8.778 14.0729 9.13589 14.3082C9.5393 14.5729 10.0591 14.8121 10.68 15.0184C11.3148 15.2297 11.9623 15.337 12.605 15.337C13.2476 15.337 13.8953 15.2297 14.5297 15.0186C15.1512 14.8119 15.6708 14.5729 16.0747 14.3078C16.441 14.0668 16.7556 13.8581 17.0365 13.6695C17.1745 13.577 17.2597 13.5269 17.3076 13.5007C17.7003 13.5115 18.062 13.5832 18.3839 13.7144C18.7316 13.8561 19.0269 14.0452 19.2612 14.2759C19.5116 14.5226 19.7386 14.8289 19.9359 15.1863C20.1427 15.5608 20.3096 15.9499 20.4316 16.3423C20.5591 16.7524 20.6664 17.2047 20.7503 17.6865C20.8354 18.1755 20.893 18.6351 20.9211 19.0526V19.053C20.9501 19.4776 20.9647 19.9214 20.9649 20.3724C20.9647 21.2372 20.7274 21.8902 20.2391 22.3684Z" fill="#B6B6B6"/>
</g>
<defs>
<clipPath id="clip0_1136_4532">
<rect width="23.3143" height="24" fill="white" transform="translate(0.967773 0.5)"/>
</clipPath>
</defs>
</svg>
