<svg width="21" height="21" viewBox="0 0 21 21" fill="none" xmlns="http://www.w3.org/2000/svg">
<path d="M9.94406 15.0106C9.94406 15.3585 10.2261 15.6406 10.5741 15.6406C10.922 15.6406 11.2041 15.3585 11.2041 15.0106V3.58137L14.279 6.65634C14.5251 6.90237 14.924 6.90237 15.17 6.65634C15.416 6.41032 15.416 6.01143 15.17 5.76539L11.0277 1.62313C10.9062 1.50163 10.7475 1.44013 10.5882 1.43863C10.5835 1.43853 10.5788 1.43848 10.5741 1.43848C10.5648 1.43848 10.5555 1.43868 10.5464 1.43908C10.3772 1.43264 10.2059 1.494 10.0768 1.62314L5.93453 5.76539C5.68849 6.01143 5.68849 6.41032 5.93453 6.65636C6.18056 6.90239 6.57946 6.90239 6.82547 6.65636L9.94406 3.53777V15.0106Z" fill="#0F172A"/>
<path d="M2.91235 12.005C2.91235 11.6571 2.63028 11.375 2.28235 11.375C1.93441 11.375 1.65234 11.6571 1.65234 12.005V16.8318C1.65234 18.3395 2.87462 19.5618 4.38235 19.5618H16.6176C18.1254 19.5618 19.3476 18.3395 19.3476 16.8318V12.005C19.3476 11.6571 19.0656 11.375 18.7176 11.375C18.3697 11.375 18.0876 11.6571 18.0876 12.005V16.8318C18.0876 17.6436 17.4295 18.3018 16.6176 18.3018H4.38235C3.57049 18.3018 2.91235 17.6436 2.91235 16.8318V12.005Z" fill="#0F172A"/>
</svg>
