<svg width="21" height="21" viewBox="0 0 21 21" fill="none" xmlns="http://www.w3.org/2000/svg">
<path d="M18.3768 3.28125H15.0956V2.95312C15.0956 2.518 14.9227 2.1007 14.615 1.79303C14.3074 1.48535 13.8901 1.3125 13.4549 1.3125H10.1737C9.73857 1.3125 9.32127 1.48535 9.01359 1.79303C8.70591 2.1007 8.53306 2.518 8.53306 2.95312V3.28125H5.25181C4.99074 3.28125 4.74036 3.38496 4.55575 3.56957C4.37115 3.75417 4.26744 4.00455 4.26744 4.26562C4.26744 4.5267 4.37115 4.77708 4.55575 4.96168C4.74036 5.14629 4.99074 5.25 5.25181 5.25H5.90806L6.11806 9.86016C6.12016 9.90326 6.13075 9.94553 6.14921 9.98454C6.16767 10.0236 6.19365 10.0585 6.22566 10.0875C6.25766 10.1165 6.29506 10.1388 6.33572 10.1533C6.37638 10.1678 6.41949 10.1741 6.46259 10.1719C6.54905 10.171 6.63167 10.1361 6.69249 10.0746C6.75332 10.0132 6.78744 9.93021 6.78744 9.84375L6.58072 5.25H17.0643L16.4638 18.0928C16.452 18.3458 16.3431 18.5846 16.1598 18.7594C15.9764 18.9341 15.7328 19.0315 15.4795 19.0312H8.58884C9.54164 18.4587 10.2545 17.56 10.5953 16.502C10.936 15.4439 10.8815 14.2981 10.442 13.2771C10.0024 12.2561 9.20747 11.4292 8.20465 10.9496C7.20184 10.47 6.05913 10.3703 4.9884 10.6689C3.91768 10.9676 2.99157 11.6444 2.38179 12.5738C1.77201 13.5032 1.51992 14.6222 1.67226 15.7233C1.82461 16.8245 2.37106 17.833 3.21029 18.5619C4.04951 19.2909 5.12459 19.6908 6.23619 19.6875H15.4827C15.9051 19.6879 16.3114 19.5255 16.617 19.234C16.9226 18.9424 17.1039 18.5443 17.1234 18.1223L17.7206 5.25H18.3768C18.6379 5.25 18.8883 5.14629 19.0729 4.96168C19.2575 4.77708 19.3612 4.5267 19.3612 4.26562C19.3612 4.00455 19.2575 3.75417 19.0729 3.56957C18.8883 3.38496 18.6379 3.28125 18.3768 3.28125ZM3.93931 18.2897C3.93931 17.6805 4.1813 17.0963 4.61205 16.6656C5.0428 16.2348 5.62702 15.9928 6.23619 15.9928C6.84536 15.9928 7.42958 16.2348 7.86032 16.6656C8.29107 17.0963 8.53306 17.6805 8.53306 18.2897C7.86484 18.7733 7.06103 19.0336 6.23619 19.0336C5.41134 19.0336 4.60754 18.7733 3.93931 18.2897ZM4.92369 14.1094C4.92369 13.8498 5.00066 13.596 5.14488 13.3802C5.2891 13.1643 5.49409 12.9961 5.73392 12.8968C5.97374 12.7974 6.23764 12.7715 6.49224 12.8221C6.74684 12.8727 6.98071 12.9977 7.16426 13.1813C7.34782 13.3649 7.47282 13.5987 7.52347 13.8533C7.57411 14.1079 7.54812 14.3718 7.44878 14.6116C7.34944 14.8515 7.18121 15.0565 6.96537 15.2007C6.74953 15.3449 6.49578 15.4219 6.23619 15.4219C5.88809 15.4219 5.55425 15.2836 5.30811 15.0375C5.06197 14.7913 4.92369 14.4575 4.92369 14.1094ZM2.29869 15.0937C2.29717 14.4521 2.45247 13.8199 2.75107 13.252C3.04968 12.6841 3.48254 12.1977 4.01199 11.8353C4.54145 11.4729 5.15145 11.2453 5.78892 11.1724C6.42639 11.0995 7.07201 11.1835 7.6696 11.4171C8.2672 11.6507 8.79866 12.0268 9.21774 12.5126C9.63682 12.9985 9.93082 13.5794 10.0742 14.2048C10.2175 14.8302 10.2058 15.4811 10.0402 16.101C9.87453 16.7209 9.5599 17.2909 9.12369 17.7614C9.02632 17.3041 8.82175 16.8765 8.52683 16.5136C8.23191 16.1508 7.85506 15.8632 7.42728 15.6745C7.75545 15.4252 7.99708 15.0791 8.11812 14.6851C8.23916 14.2912 8.23351 13.8691 8.10195 13.4785C7.97039 13.0879 7.71957 12.7485 7.38483 12.508C7.0501 12.2676 6.64834 12.1382 6.23619 12.1382C5.82403 12.1382 5.42227 12.2676 5.08754 12.508C4.75281 12.7485 4.50198 13.0879 4.37043 13.4785C4.23887 13.8691 4.23321 14.2912 4.35425 14.6851C4.47529 15.0791 4.71693 15.4252 5.04509 15.6745C4.61732 15.8632 4.24046 16.1508 3.94554 16.5136C3.65062 16.8765 3.44606 17.3041 3.34869 17.7614C2.67395 17.037 2.29876 16.0837 2.29869 15.0937ZM9.18931 2.95312C9.18931 2.69205 9.29302 2.44167 9.47763 2.25707C9.66224 2.07246 9.91261 1.96875 10.1737 1.96875H13.4549C13.716 1.96875 13.9664 2.07246 14.151 2.25707C14.3356 2.44167 14.4393 2.69205 14.4393 2.95312V3.28125H9.18931V2.95312ZM18.3768 4.59375H5.25181C5.16479 4.59375 5.08133 4.55918 5.01979 4.49764C4.95826 4.43611 4.92369 4.35265 4.92369 4.26562C4.92369 4.1786 4.95826 4.09514 5.01979 4.03361C5.08133 3.97207 5.16479 3.9375 5.25181 3.9375H18.3768C18.4638 3.9375 18.5473 3.97207 18.6088 4.03361C18.6704 4.09514 18.7049 4.1786 18.7049 4.26562C18.7049 4.35265 18.6704 4.43611 18.6088 4.49764C18.5473 4.55918 18.4638 4.59375 18.3768 4.59375ZM8.53306 15.4875C8.52983 15.4657 8.52983 15.4436 8.53306 15.4219C8.53195 15.3788 8.54094 15.3361 8.55931 15.2972C8.57434 15.2566 8.59783 15.2197 8.62822 15.1889C8.66642 15.1511 8.71333 15.1232 8.76482 15.1078C8.81631 15.0923 8.87082 15.0898 8.92353 15.1003C8.94526 15.1034 8.96634 15.11 8.98587 15.12C9.00603 15.1266 9.0249 15.1365 9.04166 15.1495C9.06043 15.1609 9.07802 15.1741 9.09416 15.1889C9.12454 15.2197 9.14803 15.2566 9.16306 15.2972C9.17988 15.3366 9.18879 15.379 9.18931 15.4219C9.1881 15.5087 9.15412 15.592 9.09416 15.6548C9.06226 15.6838 9.02564 15.7071 8.98587 15.7237C8.96634 15.7337 8.94526 15.7404 8.92353 15.7434L8.86119 15.75H8.79556C8.77501 15.7464 8.7551 15.7398 8.7365 15.7303L8.67744 15.7008L8.62822 15.6614C8.61411 15.6458 8.60096 15.6294 8.58884 15.6122C8.57643 15.5939 8.56649 15.574 8.55931 15.5531C8.54692 15.5329 8.53804 15.5107 8.53306 15.4875ZM3.33228 15.6056C3.31986 15.5873 3.30993 15.5675 3.30275 15.5466C3.29276 15.527 3.2861 15.5059 3.28306 15.4842C3.28145 15.4635 3.28145 15.4426 3.28306 15.4219C3.28268 15.3567 3.30172 15.2929 3.33775 15.2386C3.37378 15.1843 3.42516 15.1419 3.48536 15.1169C3.54555 15.0919 3.61182 15.0854 3.67572 15.0983C3.73962 15.1111 3.79826 15.1426 3.84416 15.1889C3.87314 15.2208 3.89645 15.2574 3.91306 15.2972C3.92988 15.3366 3.93879 15.379 3.93931 15.4219C3.93969 15.487 3.92065 15.5509 3.88462 15.6052C3.8486 15.6595 3.79721 15.7018 3.73702 15.7268C3.67682 15.7518 3.61055 15.7583 3.54665 15.7455C3.48275 15.7327 3.42411 15.7011 3.37822 15.6548C3.36411 15.6392 3.35096 15.6228 3.33884 15.6056H3.33228ZM13.222 7.12359C13.1912 7.09309 13.1668 7.0568 13.1501 7.01681C13.1335 6.97683 13.1249 6.93394 13.1249 6.89062C13.1249 6.84731 13.1335 6.80442 13.1501 6.76444C13.1668 6.72445 13.1912 6.68816 13.222 6.65766C13.2539 6.62867 13.2905 6.60537 13.3302 6.58875C13.39 6.56362 13.4559 6.55676 13.5195 6.56902C13.5832 6.58128 13.6418 6.61213 13.6879 6.65766C13.7342 6.70355 13.7657 6.76219 13.7786 6.82609C13.7914 6.88999 13.7849 6.95626 13.7599 7.01645C13.7349 7.07665 13.6925 7.12803 13.6382 7.16406C13.5839 7.20009 13.5201 7.21913 13.4549 7.21875C13.4121 7.21823 13.3697 7.20931 13.3302 7.1925C13.2905 7.17588 13.2539 7.15258 13.222 7.12359ZM11.5813 7.12359C11.5507 7.093 11.5265 7.05668 11.5099 7.01671C11.4934 6.97673 11.4848 6.93389 11.4848 6.89062C11.4848 6.84736 11.4934 6.80452 11.5099 6.76454C11.5265 6.72457 11.5507 6.68825 11.5813 6.65766C11.6119 6.62706 11.6483 6.60279 11.6882 6.58624C11.7282 6.56968 11.771 6.56116 11.8143 6.56116C11.8576 6.56116 11.9004 6.56968 11.9404 6.58624C11.9804 6.60279 12.0167 6.62706 12.0473 6.65766C12.0777 6.68846 12.1012 6.72537 12.1162 6.76594C12.1335 6.80521 12.1425 6.84768 12.1425 6.89062C12.1425 6.93357 12.1335 6.97604 12.1162 7.01531C12.1012 7.05588 12.0777 7.09279 12.0473 7.12359C12.0168 7.15435 11.9805 7.17876 11.9405 7.19542C11.9005 7.21208 11.8576 7.22065 11.8143 7.22065C11.771 7.22065 11.7281 7.21208 11.6881 7.19542C11.6481 7.17876 11.6118 7.15435 11.5813 7.12359ZM9.94072 7.12359C9.88684 7.07015 9.85315 6.99968 9.84539 6.92419C9.83762 6.8487 9.85627 6.77285 9.89815 6.70956C9.94002 6.64628 10.0025 6.59946 10.0751 6.57709C10.1476 6.55472 10.2256 6.55817 10.2959 6.58687C10.3661 6.61556 10.4243 6.66772 10.4604 6.73447C10.4965 6.80121 10.5084 6.87841 10.4939 6.95292C10.4795 7.02743 10.4398 7.09464 10.3814 7.14311C10.323 7.19158 10.2496 7.21831 10.1737 7.21875C10.0868 7.21754 10.0036 7.18355 9.94072 7.12359ZM13.1268 8.53125C13.128 8.44437 13.162 8.36116 13.222 8.29828C13.2539 8.2693 13.2905 8.24599 13.3302 8.22937C13.39 8.20425 13.4559 8.19738 13.5195 8.20965C13.5832 8.22191 13.6418 8.25275 13.6879 8.29828C13.7342 8.34418 13.7657 8.40281 13.7786 8.46671C13.7914 8.53062 13.7849 8.59689 13.7599 8.65708C13.7349 8.71727 13.6925 8.76866 13.6382 8.80469C13.5839 8.84071 13.5201 8.85975 13.4549 8.85937C13.4121 8.85886 13.3697 8.84994 13.3302 8.83312C13.2905 8.81651 13.2539 8.7932 13.222 8.76422C13.162 8.70134 13.128 8.61813 13.1268 8.53125ZM11.4862 8.53125C11.4862 8.44423 11.5208 8.36076 11.5823 8.29923C11.6438 8.23769 11.7273 8.20312 11.8143 8.20312C11.9013 8.20312 11.9848 8.23769 12.0463 8.29923C12.1079 8.36076 12.1424 8.44423 12.1424 8.53125C12.1419 8.57413 12.133 8.61649 12.1162 8.65594C12.1012 8.69651 12.0777 8.73342 12.0473 8.76422C12.0014 8.81049 11.9427 8.84205 11.8788 8.85487C11.8149 8.86769 11.7487 8.86119 11.6885 8.8362C11.6283 8.81121 11.5769 8.76886 11.5409 8.71454C11.5048 8.66023 11.4858 8.59642 11.4862 8.53125ZM9.84556 8.53125C9.846 8.45536 9.87273 8.38197 9.9212 8.32358C9.96967 8.26518 10.0369 8.22539 10.1114 8.21099C10.1859 8.19658 10.2631 8.20845 10.3298 8.24457C10.3966 8.28068 10.4487 8.33882 10.4774 8.40907C10.5061 8.47933 10.5096 8.55736 10.4872 8.62988C10.4649 8.70239 10.418 8.76491 10.3547 8.80679C10.2915 8.84867 10.2156 8.86731 10.1401 8.85955C10.0646 8.85179 9.99416 8.8181 9.94072 8.76422C9.88076 8.70134 9.84677 8.61813 9.84556 8.53125ZM13.1268 10.1719C13.128 10.085 13.162 10.0018 13.222 9.93891C13.2539 9.90992 13.2905 9.88662 13.3302 9.87C13.39 9.84487 13.4559 9.83801 13.5195 9.85027C13.5832 9.86253 13.6418 9.89338 13.6879 9.93891C13.7342 9.9848 13.7657 10.0434 13.7786 10.1073C13.7914 10.1712 13.7849 10.2375 13.7599 10.2977C13.7349 10.3579 13.6925 10.4093 13.6382 10.4453C13.5839 10.4813 13.5201 10.5004 13.4549 10.5C13.4121 10.4995 13.3697 10.4906 13.3302 10.4737C13.2905 10.4571 13.2539 10.4338 13.222 10.4048C13.162 10.342 13.128 10.2588 13.1268 10.1719ZM11.4862 10.1719C11.4858 10.1067 11.5048 10.0429 11.5409 9.98858C11.5769 9.93427 11.6283 9.89192 11.6885 9.86692C11.7487 9.84193 11.8149 9.83543 11.8788 9.84825C11.9427 9.86107 12.0014 9.89263 12.0473 9.93891C12.0772 9.97011 12.1006 10.0069 12.1162 10.0472C12.1335 10.0865 12.1425 10.1289 12.1425 10.1719C12.1425 10.2148 12.1335 10.2573 12.1162 10.2966C12.0996 10.3363 12.0763 10.3729 12.0473 10.4048C12.0168 10.4356 11.9805 10.46 11.9405 10.4767C11.9005 10.4933 11.8576 10.5019 11.8143 10.5019C11.771 10.5019 11.7281 10.4933 11.6881 10.4767C11.6481 10.46 11.6118 10.4356 11.5813 10.4048C11.5524 10.3729 11.5291 10.3363 11.5124 10.2966C11.4941 10.2576 11.4851 10.2149 11.4862 10.1719ZM13.1268 14.1094C13.128 14.0225 13.162 13.9393 13.222 13.8764C13.2539 13.8474 13.2905 13.8241 13.3302 13.8075C13.39 13.7824 13.4559 13.7755 13.5195 13.7878C13.5832 13.8 13.6418 13.8309 13.6879 13.8764C13.7342 13.9223 13.7657 13.9809 13.7786 14.0448C13.7914 14.1087 13.7849 14.175 13.7599 14.2352C13.7349 14.2954 13.6925 14.3468 13.6382 14.3828C13.5839 14.4188 13.5201 14.4379 13.4549 14.4375C13.4121 14.437 13.3697 14.4281 13.3302 14.4112C13.2905 14.3946 13.2539 14.3713 13.222 14.3423C13.162 14.2795 13.128 14.1963 13.1268 14.1094ZM11.4862 14.1094C11.4858 14.0442 11.5048 13.9804 11.5409 13.9261C11.5769 13.8718 11.6283 13.8294 11.6885 13.8044C11.7487 13.7794 11.8149 13.7729 11.8788 13.7858C11.9427 13.7986 12.0014 13.8301 12.0473 13.8764C12.0772 13.9076 12.1006 13.9444 12.1162 13.9847C12.1335 14.024 12.1425 14.0664 12.1425 14.1094C12.1425 14.1523 12.1335 14.1948 12.1162 14.2341C12.1012 14.2746 12.0777 14.3115 12.0473 14.3423C12.0014 14.3886 11.9427 14.4202 11.8788 14.433C11.8149 14.4458 11.7487 14.4393 11.6885 14.4143C11.6283 14.3893 11.5769 14.347 11.5409 14.2927C11.5048 14.2384 11.4858 14.1745 11.4862 14.1094ZM13.1268 15.75C13.128 15.6631 13.162 15.5799 13.222 15.517C13.2539 15.488 13.2905 15.4647 13.3302 15.4481C13.39 15.423 13.4559 15.4161 13.5195 15.4284C13.5832 15.4407 13.6418 15.4715 13.6879 15.517C13.7342 15.5629 13.7657 15.6216 13.7786 15.6855C13.7914 15.7494 13.7849 15.8156 13.7599 15.8758C13.7349 15.936 13.6925 15.9874 13.6382 16.0234C13.5839 16.0595 13.5201 16.0785 13.4549 16.0781C13.4121 16.0776 13.3697 16.0687 13.3302 16.0519C13.2905 16.0353 13.2539 16.012 13.222 15.983C13.162 15.9201 13.128 15.8369 13.1268 15.75ZM11.4862 15.75C11.4858 15.6848 11.5048 15.621 11.5409 15.5667C11.5769 15.5124 11.6283 15.47 11.6885 15.445C11.7487 15.4201 11.8149 15.4136 11.8788 15.4264C11.9427 15.4392 12.0014 15.4708 12.0473 15.517C12.0772 15.5482 12.1006 15.585 12.1162 15.6253C12.133 15.6648 12.1419 15.7071 12.1424 15.75C12.1427 15.7932 12.1344 15.836 12.1181 15.876C12.1018 15.9159 12.0777 15.9523 12.0473 15.983C12.0014 16.0292 11.9427 16.0608 11.8788 16.0736C11.8149 16.0864 11.7487 16.0799 11.6885 16.0549C11.6283 16.03 11.5769 15.9876 11.5409 15.9333C11.5048 15.879 11.4858 15.8152 11.4862 15.75ZM13.1268 17.3906C13.128 17.3037 13.162 17.2205 13.222 17.1577C13.2539 17.1287 13.2905 17.1054 13.3302 17.0887C13.39 17.0636 13.4559 17.0568 13.5195 17.069C13.5832 17.0813 13.6418 17.1121 13.6879 17.1577C13.7342 17.2036 13.7657 17.2622 13.7786 17.3261C13.7914 17.39 13.7849 17.4563 13.7599 17.5165C13.7349 17.5766 13.6925 17.628 13.6382 17.6641C13.5839 17.7001 13.5201 17.7191 13.4549 17.7187C13.4121 17.7182 13.3697 17.7093 13.3302 17.6925C13.2905 17.6759 13.2539 17.6526 13.222 17.6236C13.162 17.5607 13.128 17.4775 13.1268 17.3906ZM11.4862 17.3906C11.4866 17.3147 11.5134 17.2413 11.5618 17.183C11.6103 17.1246 11.6775 17.0848 11.752 17.0704C11.8265 17.056 11.9037 17.0678 11.9705 17.1039C12.0372 17.1401 12.0894 17.1982 12.1181 17.2684C12.1468 17.3387 12.1502 17.4167 12.1278 17.4893C12.1055 17.5618 12.0587 17.6243 11.9954 17.6662C11.9321 17.708 11.8562 17.7267 11.7807 17.7189C11.7053 17.7112 11.6348 17.6775 11.5813 17.6236C11.5214 17.5607 11.4874 17.4775 11.4862 17.3906ZM9.84556 10.1719C9.84677 10.085 9.88076 10.0018 9.94072 9.93891C9.97192 9.90903 10.0087 9.88562 10.049 9.87C10.1088 9.84487 10.1746 9.83801 10.2383 9.85027C10.3019 9.86253 10.3605 9.89338 10.4067 9.93891C10.4446 9.97712 10.4725 10.0241 10.488 10.0756C10.5034 10.1272 10.506 10.1817 10.4954 10.2345C10.4848 10.2873 10.4614 10.3366 10.4272 10.3782C10.3931 10.4198 10.3492 10.4524 10.2995 10.473C10.2498 10.4936 10.1958 10.5017 10.1422 10.4966C10.0886 10.4914 10.0371 10.4732 9.9923 10.4434C9.94744 10.4136 9.9106 10.3733 9.88501 10.326C9.85942 10.2786 9.84587 10.2257 9.84556 10.1719Z" fill="#FCCF12"/>
</svg>
