<svg width="23" height="23" viewBox="0 0 23 23" fill="none" xmlns="http://www.w3.org/2000/svg">
<path d="M19.6445 8.38542H14.3737V5.27083C14.3729 4.63565 14.1203 4.0267 13.6711 3.57756C13.222 3.12842 12.613 2.87576 11.9779 2.875H3.35286C2.71768 2.87576 2.10874 3.12842 1.65959 3.57756C1.21045 4.0267 0.957792 4.63565 0.957031 5.27083V11.0208C0.957792 11.656 1.21045 12.265 1.65959 12.7141C2.10874 13.1632 2.71768 13.4159 3.35286 13.4167V14.4181C3.35251 14.6072 3.4084 14.792 3.51344 14.9492C3.61848 15.1064 3.76792 15.2288 3.94272 15.3008C4.11829 15.3739 4.31165 15.3931 4.49818 15.356C4.6847 15.3189 4.85597 15.2271 4.99018 15.0923C5.00767 15.0755 5.0237 15.0572 5.03809 15.0377L6.23026 13.4167H8.6237V16.5313C8.62446 17.1664 8.87712 17.7754 9.32626 18.2245C9.7754 18.6737 10.3844 18.9263 11.0195 18.9271H16.3316L18.0087 20.6042C18.1427 20.7382 18.3134 20.8294 18.4993 20.8664C18.6852 20.9033 18.8778 20.8843 19.0529 20.8118C19.228 20.7393 19.3777 20.6165 19.483 20.4589C19.5883 20.3014 19.6445 20.1161 19.6445 19.9266V18.9271C20.2797 18.9263 20.8887 18.6737 21.3378 18.2245C21.7869 17.7754 22.0396 17.1664 22.0404 16.5313V10.7813C22.0396 10.1461 21.7869 9.53712 21.3378 9.08798C20.8887 8.63884 20.2797 8.38618 19.6445 8.38542ZM5.98828 12.4583C5.91361 12.4587 5.84006 12.4766 5.77351 12.5104C5.70695 12.5443 5.64923 12.5932 5.60495 12.6534L4.3112 14.4071V12.9375C4.3112 12.8104 4.26071 12.6885 4.17085 12.5987C4.08099 12.5088 3.95911 12.4583 3.83203 12.4583H3.35286C2.97162 12.4583 2.60598 12.3069 2.3364 12.0373C2.06682 11.7677 1.91536 11.4021 1.91536 11.0208V5.27083C1.91536 4.88958 2.06682 4.52395 2.3364 4.25437C2.60598 3.98478 2.97162 3.83333 3.35286 3.83333H11.9779C12.3591 3.83333 12.7247 3.98478 12.9943 4.25437C13.2639 4.52395 13.4154 4.88958 13.4154 5.27083V8.38542H11.0195C10.5098 8.38693 10.014 8.55241 9.60551 8.8574L8.10141 5.55115C8.06329 5.46749 8.00192 5.39656 7.9246 5.34683C7.84729 5.29709 7.7573 5.27065 7.66536 5.27065C7.57343 5.27065 7.48344 5.29709 7.40613 5.34683C7.32881 5.39656 7.26744 5.46749 7.22932 5.55115L4.83349 10.822C4.80752 10.8794 4.79311 10.9413 4.7911 11.0043C4.78908 11.0672 4.7995 11.1299 4.82175 11.1889C4.844 11.2478 4.87765 11.3017 4.92078 11.3476C4.9639 11.3936 5.01565 11.4305 5.07307 11.4564C5.13465 11.4849 5.20167 11.4998 5.26953 11.5C5.36149 11.5 5.45151 11.4735 5.52882 11.4237C5.60614 11.3739 5.6675 11.3029 5.70557 11.2192L6.44924 9.58333H8.88245L8.91647 9.65761C8.72708 10.002 8.62646 10.3882 8.6237 10.7813V12.4583H5.98828ZM8.44689 8.625H6.8848L7.66536 6.90767L8.44689 8.625ZM21.082 16.5313C21.082 16.9125 20.9306 17.2781 20.661 17.5477C20.3914 17.8173 20.0258 17.9688 19.6445 17.9688H19.1654C19.0383 17.9688 18.9164 18.0192 18.8265 18.1091C18.7367 18.199 18.6862 18.3208 18.6862 18.4479V19.9266L16.8687 18.1091C16.7789 18.0193 16.657 17.9688 16.5299 17.9688H11.0195C10.6383 17.9688 10.2726 17.8173 10.0031 17.5477C9.73348 17.2781 9.58203 16.9125 9.58203 16.5313V10.7813C9.58203 10.4 9.73348 10.0344 10.0031 9.76478C10.2726 9.4952 10.6383 9.34375 11.0195 9.34375H19.6445C20.0258 9.34375 20.3914 9.4952 20.661 9.76478C20.9306 10.0344 21.082 10.4 21.082 10.7813V16.5313Z" fill="#FCCF12"/>
<path d="M17.7279 11.979H15.8112V11.0207C15.8112 10.8936 15.7607 10.7717 15.6709 10.6818C15.581 10.592 15.4591 10.5415 15.332 10.5415C15.2049 10.5415 15.0831 10.592 14.9932 10.6818C14.9033 10.7717 14.8529 10.8936 14.8529 11.0207V11.979H12.9362C12.8091 11.979 12.6872 12.0295 12.5974 12.1193C12.5075 12.2092 12.457 12.3311 12.457 12.4582C12.457 12.5853 12.5075 12.7071 12.5974 12.797C12.6872 12.8869 12.8091 12.9373 12.9362 12.9373H16.4916C16.3743 13.7514 15.9603 14.4934 15.3292 15.0208C14.9605 14.7129 14.6626 14.3291 14.4556 13.8957C14.4296 13.8374 14.3921 13.7848 14.3455 13.7412C14.2989 13.6976 14.244 13.6637 14.1841 13.6416C14.1241 13.6194 14.0604 13.6095 13.9966 13.6124C13.9328 13.6153 13.8702 13.6309 13.8125 13.6583C13.7548 13.6857 13.7032 13.7243 13.6607 13.772C13.6181 13.8196 13.5855 13.8753 13.5648 13.9357C13.5441 13.9962 13.5357 14.0601 13.5401 14.1238C13.5444 14.1876 13.5615 14.2498 13.5903 14.3068C13.8129 14.7685 14.1173 15.186 14.4887 15.5392C14.0629 15.7206 13.6046 15.8135 13.1418 15.8123C13.0797 15.8126 13.0183 15.8253 12.9612 15.8497C12.9042 15.8741 12.8526 15.9097 12.8095 15.9544C12.7664 15.999 12.7327 16.0519 12.7103 16.1098C12.688 16.1677 12.6774 16.2295 12.6794 16.2915C12.6832 16.4204 12.7373 16.5426 12.8301 16.6321C12.9228 16.7216 13.0469 16.7714 13.1758 16.7707C13.9373 16.7704 14.685 16.5669 15.3416 16.1813C16.0044 16.5653 16.7563 16.7686 17.5223 16.7707C17.5844 16.7704 17.6457 16.7577 17.7028 16.7333C17.7599 16.7089 17.8115 16.6733 17.8546 16.6286C17.8977 16.584 17.9314 16.5311 17.9537 16.4732C17.9761 16.4153 17.9866 16.3535 17.9847 16.2915C17.9808 16.1627 17.9267 16.0404 17.834 15.9509C17.7412 15.8614 17.6172 15.8117 17.4883 15.8123C17.04 15.8106 16.5967 15.7183 16.1849 15.5411C16.8987 14.8471 17.3494 13.9267 17.46 12.9373H17.7279C17.8549 12.9373 17.9768 12.8869 18.0667 12.797C18.1565 12.7071 18.207 12.5853 18.207 12.4582C18.207 12.3311 18.1565 12.2092 18.0667 12.1193C17.9768 12.0295 17.8549 11.979 17.7279 11.979Z" fill="#FCCF12"/>
</svg>
