<svg width="21" height="21" viewBox="0 0 21 21" fill="none" xmlns="http://www.w3.org/2000/svg">
<g clip-path="url(#clip0_1437_25924)">
<path d="M10.1425 19.7967H4.66524C3.1767 19.7967 1.96894 18.5845 1.96894 17.1004V3.89962C1.96894 2.41108 3.18116 1.20331 4.66524 1.20331H10.2317C10.5659 1.20331 10.8333 0.935908 10.8333 0.601655C10.8333 0.267402 10.5659 0 10.2317 0H4.66524C2.51265 0 0.765625 1.75149 0.765625 3.89962V17.1004C0.765625 19.253 2.51711 21 4.66524 21H10.1425C10.4768 21 10.7442 20.7326 10.7442 20.3983C10.7442 20.0641 10.4723 19.7967 10.1425 19.7967Z" fill="#FCCF12"/>
<path d="M20.0559 10.0767L16.2321 6.25284C15.9959 6.01663 15.6171 6.01663 15.3809 6.25284C15.1447 6.48904 15.1447 6.86786 15.3809 7.10407L18.1797 9.90288H5.97275C5.6385 9.90288 5.37109 10.1703 5.37109 10.5045C5.37109 10.8388 5.6385 11.1062 5.97275 11.1062H18.1797L15.3809 13.905C15.1447 14.1412 15.1447 14.52 15.3809 14.7562C15.4967 14.8721 15.6527 14.9345 15.8042 14.9345C15.9558 14.9345 16.1118 14.8766 16.2276 14.7562L20.0515 10.9324C20.2921 10.6917 20.2921 10.3084 20.0559 10.0767Z" fill="#FCCF12"/>
</g>
<defs>
<clipPath id="clip0_1437_25924">
<rect width="21" height="21" fill="white"/>
</clipPath>
</defs>
</svg>
