<svg width="23" height="24" viewBox="0 0 23 24" fill="none" xmlns="http://www.w3.org/2000/svg">
<g clip-path="url(#clip0_1437_25899)">
<path d="M3.83333 13.512C3.62378 13.3123 3.35049 13.201 3.06667 13.2H1.15C0.514873 13.2 0 13.7373 0 14.4V22.8C0 23.4627 0.514873 24 1.15 24H3.06667C3.39192 23.9989 3.70138 23.8535 3.91767 23.6H13.5317C14.0942 23.6002 14.6459 23.4389 15.1263 23.1336L22.31 18.5704C22.6499 18.3565 22.8892 18.0048 22.9707 17.5994C23.0522 17.1941 22.9685 16.7716 22.7397 16.4332C22.7319 16.4192 22.723 16.4058 22.7133 16.3932C22.3422 15.8792 21.6986 15.6689 21.1129 15.8704L19.9333 16.28V11.2H21.0833C21.2227 11.2 21.3511 11.1211 21.4186 10.9939C21.4862 10.8667 21.4823 10.7113 21.4084 10.588L19.2962 7.064C19.2237 6.94253 19.0945 6.87069 18.9574 6.87555C18.8203 6.88041 18.6961 6.96122 18.6315 7.08755C18.567 7.21388 18.572 7.36653 18.6446 7.488L20.3933 10.4H9.7957L6.44 4.8H12.2667C12.4784 4.8 12.65 4.62091 12.65 4.4C12.65 4.17909 12.4784 4 12.2667 4H5.75C5.61829 4.00095 5.49626 4.07239 5.42685 4.1892H5.42493L1.5916 10.5892C1.51836 10.7125 1.51478 10.8674 1.58226 10.9942C1.64973 11.121 1.77769 11.1997 1.91667 11.2H3.83333V13.512ZM3.06667 23.2H1.15C0.938291 23.2 0.766667 23.0209 0.766667 22.8V14.4C0.766667 14.1791 0.938291 14 1.15 14H3.06667C3.27838 14 3.45 14.1791 3.45 14.4V22.8C3.45 23.0209 3.27838 23.2 3.06667 23.2ZM21.3517 16.628C21.6146 16.5373 21.9039 16.6245 22.08 16.8476C22.0858 16.8576 22.0919 16.8668 22.0984 16.8764C22.2119 17.033 22.2562 17.2325 22.2203 17.4252C22.1844 17.6179 22.0716 17.7856 21.9102 17.8864L14.7277 22.4504C14.3673 22.6792 13.9535 22.8001 13.5317 22.8H4.21667V14.8H4.90667C5.61396 14.8008 6.30007 15.052 6.85285 15.5124C7.54144 16.0856 8.39581 16.3985 9.27667 16.4H11.2815C11.8897 16.3979 12.4408 16.7738 12.683 17.356C12.8347 17.6978 12.794 18.0989 12.5772 18.4H10.2427C9.4858 18.4005 8.74593 18.6343 8.11593 19.072L7.8361 19.268C7.66038 19.3913 7.6137 19.6398 7.73183 19.8232C7.84997 20.0066 8.08818 20.0553 8.2639 19.932L8.54143 19.7376C9.04531 19.3873 9.6372 19.2003 10.2427 19.2H13.6505C13.8573 19.2003 14.0627 19.165 14.2585 19.0956L21.3517 16.628ZM19.1667 16.5448L14.0131 18.3376C13.8964 18.379 13.7738 18.4001 13.6505 18.4H13.4416C13.5884 17.9594 13.5707 17.4772 13.3921 17.0496C13.1163 16.3781 12.56 15.8761 11.8833 15.6884V11.2H19.1667V16.5448ZM9.58333 11.2H11.1167V15.6H9.27667C8.56938 15.5992 7.88327 15.348 7.33048 14.8876C6.6419 14.3144 5.78752 14.0015 4.90667 14H4.6V10.9148L6.9 7.0748L9.25827 11.012C9.32832 11.129 9.45117 11.2 9.58333 11.2ZM5.75 5.1548L6.44805 6.32L4.0043 10.4H2.60667L5.75 5.1548Z" fill="#FCCF12"/>
<path d="M17.2473 3.60988e-08C17.0399 -9.10039e-05 16.87 0.172029 16.864 0.3884V0.3968V0.4C16.864 0.5472 16.8291 4 13.7935 4C13.5818 4 13.4102 4.17909 13.4102 4.4C13.4102 4.62091 13.5818 4.8 13.7935 4.8C16.8172 4.8 16.8632 8.2536 16.864 8.4C16.8611 8.62091 17.0304 8.80242 17.2421 8.8054C17.4539 8.80838 17.6278 8.63171 17.6307 8.4108V8.4024V8.4C17.6307 8.2528 17.6655 4.8 20.7008 4.8C20.9125 4.8 21.0841 4.62091 21.0841 4.4C21.0841 4.17909 20.9125 4 20.7008 4C17.6774 4 17.631 0.5464 17.6307 0.4C17.6307 0.179086 17.459 3.60988e-08 17.2473 3.60988e-08ZM18.9535 4.4C18.1686 4.83209 17.5618 5.54842 17.2473 6.4144C16.9328 5.54842 16.3261 4.83209 15.5411 4.4C16.3261 3.96791 16.9328 3.25158 17.2473 2.3856C17.5618 3.25158 18.1686 3.96791 18.9535 4.4Z" fill="#FCCF12"/>
<path d="M18.0159 12.7998C17.8042 12.7998 17.6326 12.9789 17.6326 13.1998V15.3114L15.5948 16.0202C15.3937 16.09 15.2849 16.3167 15.3518 16.5266C15.4187 16.7365 15.6359 16.85 15.8371 16.7802L18.1371 15.9802C18.2939 15.9257 18.3996 15.7723 18.3993 15.5998V13.1998C18.3993 12.9789 18.2276 12.7998 18.0159 12.7998Z" fill="#FCCF12"/>
</g>
<defs>
<clipPath id="clip0_1437_25899">
<rect width="23" height="24" fill="white"/>
</clipPath>
</defs>
</svg>
