<svg width="21" height="21" viewBox="0 0 21 21" fill="none" xmlns="http://www.w3.org/2000/svg">
<g clip-path="url(#clip0_1437_25905)">
<path d="M20.0452 10.5881V7.63656C20.0452 6.63574 19.2689 5.82181 18.288 5.74288L15.5471 0.955317C15.293 0.512535 14.8829 0.196064 14.3921 0.0646516C13.9036 -0.0658655 13.3928 0.00268171 12.9556 0.257138L3.55935 5.72749H1.90907C0.856213 5.72749 0 6.58366 0 7.63656V19.0909C0 20.1438 0.856169 21 1.90907 21H18.1361C19.189 21 20.0452 20.1438 20.0452 19.0909V16.1394C20.5995 15.9417 20.9997 15.4169 20.9997 14.7955V11.9319C20.9997 11.3106 20.5995 10.7858 20.0452 10.5881ZM17.1789 5.72749H13.019L16.139 3.91108L17.1789 5.72749ZM15.6647 3.08274L11.122 5.72749H9.23767L15.1936 2.25986L15.6647 3.08274ZM13.4361 1.08208C13.6519 0.955765 13.9041 0.922207 14.1451 0.986548C14.3888 1.05178 14.592 1.20933 14.7184 1.42978L14.7193 1.43152L7.34068 5.72749H5.45648L13.4361 1.08208ZM19.0906 19.0909C19.0906 19.6171 18.6623 20.0454 18.1361 20.0454H1.90907C1.38289 20.0454 0.95456 19.6171 0.95456 19.0909V7.63656C0.95456 7.11038 1.38289 6.68205 1.90907 6.68205H18.1361C18.6623 6.68205 19.0906 7.11038 19.0906 7.63656V10.5002H16.227C14.6479 10.5002 13.3634 11.7847 13.3634 13.3637C13.3634 14.9428 14.6479 16.2273 16.227 16.2273H19.0906V19.0909ZM20.0452 14.7955C20.0452 15.0589 19.8313 15.2728 19.5679 15.2728H16.227C15.1742 15.2728 14.3179 14.4167 14.3179 13.3637C14.3179 12.3109 15.1741 11.4547 16.227 11.4547H19.5679C19.8312 11.4547 20.0452 11.6686 20.0452 11.9319V14.7955Z" fill="#FCCF12"/>
<path d="M16.228 12.4092C15.7018 12.4092 15.2734 12.8375 15.2734 13.3637C15.2734 13.8899 15.7018 14.3182 16.228 14.3182C16.7541 14.3182 17.1825 13.8899 17.1825 13.3637C17.1825 12.8375 16.7542 12.4092 16.228 12.4092Z" fill="#FCCF12"/>
</g>
<defs>
<clipPath id="clip0_1437_25905">
<rect width="21" height="21" fill="white"/>
</clipPath>
</defs>
</svg>
