<svg width="24" height="24" viewBox="0 0 24 24" fill="none" xmlns="http://www.w3.org/2000/svg">
<path d="M12.0039 0.99707C5.94062 0.99707 0.996094 5.9416 0.996094 12.0049C0.996094 18.0682 5.94062 23.0029 12.0039 23.0029C18.0672 23.0029 23.002 18.0682 23.002 12.0049C23.0027 11.8727 22.9773 11.7418 22.9272 11.6195C22.877 11.4972 22.8031 11.3861 22.7098 11.2926C22.6164 11.1991 22.5054 11.125 22.3833 11.0746C22.2611 11.0242 22.1302 10.9985 21.998 10.999C21.8666 10.9995 21.7365 11.026 21.6152 11.0768C21.4939 11.1277 21.3839 11.2019 21.2914 11.2954C21.1989 11.3888 21.1257 11.4996 21.076 11.6213C21.0263 11.7431 21.0012 11.8734 21.0019 12.0049C21.0019 16.9873 16.9863 21.0029 12.0039 21.0029C7.0215 21.0029 2.99609 16.9873 2.99609 12.0049C2.99609 7.02248 7.0215 2.99707 12.0039 2.99707C12.2678 2.99604 12.5205 2.89077 12.7071 2.70419C12.8937 2.5176 12.999 2.26484 13 2.00098C13.0005 1.86965 12.9752 1.73952 12.9254 1.61799C12.8756 1.49647 12.8024 1.38595 12.7099 1.29272C12.6174 1.1995 12.5074 1.12541 12.3863 1.07468C12.2652 1.02396 12.1352 0.997582 12.0039 0.99707ZM15.7988 1.74902C15.4085 1.7528 15.0398 1.98592 14.8828 2.37012C14.672 2.88177 14.9153 3.46739 15.4277 3.67676C15.4395 3.68167 15.447 3.6881 15.4568 3.69226C15.9685 3.90882 16.559 3.66655 16.7713 3.15319C16.9829 2.64358 16.7414 2.05881 16.2322 1.84655C16.2179 1.8405 16.202 1.8303 16.1893 1.82501C16.0614 1.77232 15.929 1.7477 15.7988 1.74902ZM19.0527 3.91309C18.7892 3.91526 18.5373 4.02103 18.3516 4.208C17.959 4.59888 17.959 5.2351 18.3516 5.62597C18.3599 5.63429 18.3648 5.6392 18.3731 5.64751C18.7619 6.04216 19.3982 6.0459 19.7911 5.65545C20.1837 5.26458 20.1837 4.62836 19.7911 4.23748C19.7809 4.22728 19.7722 4.21821 19.762 4.20838C19.5745 4.01959 19.3188 3.91331 19.0527 3.91309ZM12.0039 4.99902C11.8718 4.99825 11.7408 5.02367 11.6185 5.07382C11.4963 5.12397 11.3852 5.19786 11.2916 5.29121C11.1981 5.38456 11.124 5.49552 11.0736 5.61769C11.0232 5.73985 10.9975 5.87078 10.998 6.00293V12.0049C10.9986 12.1905 11.0507 12.3723 11.1487 12.5299C11.2467 12.6875 11.3866 12.8148 11.5527 12.8975L15.5527 14.8975C15.6704 14.9564 15.7986 14.9916 15.9299 15.001C16.0612 15.0103 16.193 14.9936 16.3179 14.9519C16.4427 14.9101 16.5581 14.8442 16.6574 14.7577C16.7567 14.6713 16.8379 14.5661 16.8965 14.4482C16.9555 14.3306 16.9906 14.2024 17 14.0711C17.0093 13.9398 16.9926 13.8079 16.9509 13.6831C16.9092 13.5582 16.8432 13.4429 16.7568 13.3436C16.6703 13.2443 16.5652 13.163 16.4473 13.1045L13 11.3838V6.00293C13.0005 5.87161 12.9752 5.74147 12.9254 5.61995C12.8756 5.49843 12.8024 5.3879 12.7099 5.29468C12.6174 5.20145 12.5074 5.12736 12.3863 5.07664C12.2652 5.02591 12.1352 4.99953 12.0039 4.99902ZM21.2383 7.14942C21.1074 7.14866 20.9741 7.1736 20.8457 7.22754C20.3322 7.4398 20.0901 8.03035 20.3066 8.54199C20.3116 8.55408 20.318 8.56089 20.3221 8.57109C20.5315 9.08333 21.1171 9.32876 21.6288 9.11797C22.141 8.90862 22.3864 8.32298 22.1757 7.81133C22.17 7.79772 22.1651 7.78638 22.1602 7.77429C22.0032 7.38705 21.631 7.15169 21.2383 7.14942Z" fill="#FCCF12"/>
</svg>
