<svg width="20" height="20" viewBox="0 0 20 20" fill="none" xmlns="http://www.w3.org/2000/svg">
<g clip-path="url(#clip0_1190_12685)">
<path d="M19.7174 9.49611L4.48307 0.0836894C4.27213 -0.0452168 4.00256 -0.0218184 3.80334 0.130525C3.61588 0.294588 3.54557 0.564119 3.6276 0.798494L6.85026 9.41404L11.7955 9.99998L6.85026 10.5859L3.6276 19.2031C3.54557 19.4375 3.61588 19.707 3.80334 19.8711C3.99885 20.0231 4.28295 20.0429 4.48307 19.9179L19.7174 10.5038C19.8932 10.3867 19.9987 10.1992 19.9987 9.99994C19.9987 9.80084 19.8932 9.6133 19.7174 9.49611Z" fill="#BDBDBD"/>
<path d="M14.7266 9.41406H6.8516L7.07418 10L6.8516 10.5859H14.7266C15.0547 10.5859 15.3125 10.3282 15.3125 10C15.3125 9.67184 15.0547 9.41406 14.7266 9.41406ZM4.17969 9.41406H0.585938C0.26207 9.41406 0 9.67613 0 10C0 10.3239 0.26207 10.5859 0.585938 10.5859H4.17969C4.50355 10.5859 4.76562 10.3239 4.76562 10C4.76562 9.67613 4.50355 9.41406 4.17969 9.41406ZM3.00781 11.7578H0.585938C0.26207 11.7578 0 12.0199 0 12.3437C0 12.6676 0.26207 12.9297 0.585938 12.9297H3.00781C3.33168 12.9297 3.59375 12.6676 3.59375 12.3437C3.59375 12.0199 3.33168 11.7578 3.00781 11.7578ZM0.585938 8.24219H3.00781C3.33168 8.24219 3.59375 7.98012 3.59375 7.65625C3.59375 7.33238 3.33168 7.07031 3.00781 7.07031H0.585938C0.26207 7.07031 0 7.33238 0 7.65625C0 7.98012 0.26207 8.24219 0.585938 8.24219Z" fill="#848484"/>
</g>
<defs>
<clipPath id="clip0_1190_12685">
<rect width="20" height="20" fill="white"/>
</clipPath>
</defs>
</svg>
