<svg width="137" height="137" viewBox="0 0 137 137" fill="none" xmlns="http://www.w3.org/2000/svg">
<path d="M68.4998 0C48.0183 0.0251523 31.4207 16.6225 31.3955 37.1043V59.9375C31.3955 61.5138 32.6735 62.7918 34.2498 62.7918H45.6665C47.2428 62.7918 48.5208 61.5138 48.5208 59.9375V37.1043C48.5205 26.0699 57.4656 17.125 68.4998 17.125C79.5339 17.125 88.479 26.0699 88.479 37.1043V48.521C88.479 50.0973 89.757 51.3753 91.3333 51.3753H102.75C104.326 51.3753 105.604 50.0973 105.604 48.521V37.1043C105.579 16.6225 88.9813 0.0251523 68.4998 0Z" fill="#455A64"/>
<path d="M34.2502 57.083H102.75C110.632 57.083 117.021 63.4722 117.021 71.3538V122.729C117.021 130.611 110.632 137 102.75 137H34.2502C26.3687 137 19.9795 130.611 19.9795 122.729V71.354C19.9795 63.4722 26.3687 57.083 34.2502 57.083Z" fill="#FCCF12"/>
<path d="M82.7706 88.479C82.8038 80.5975 76.4416 74.1813 68.5601 74.1481C60.6786 74.1149 54.2623 80.4771 54.2291 88.3586C54.2061 93.8065 57.2867 98.792 62.1692 101.209L59.9657 116.621C59.745 118.182 60.8314 119.626 62.3921 119.847C62.5243 119.865 62.6578 119.875 62.7914 119.875H74.2081C75.7844 119.89 77.0747 118.625 77.0902 117.049C77.0915 116.906 77.0822 116.763 77.0621 116.621L74.8586 101.209C79.6822 98.7931 82.7401 93.8731 82.7706 88.479Z" fill="#455A64"/>
</svg>
