<svg width="115" height="115" viewBox="0 0 115 115" fill="none" xmlns="http://www.w3.org/2000/svg">
<path d="M112.911 53.4643L97.4584 38.0118V23.2501C97.4584 21.7361 96.857 20.2842 95.7865 19.2137C94.716 18.1432 93.264 17.5417 91.7501 17.5417H76.9883L61.5359 2.08929C60.4654 1.01914 59.0137 0.417969 57.5001 0.417969C55.9864 0.417969 54.5348 1.01914 53.4643 2.08929L38.0118 17.5417H23.2501C21.7361 17.5417 20.2842 18.1432 19.2137 19.2137C18.1432 20.2842 17.5417 21.7361 17.5417 23.2501V38.0118L2.08929 53.4643C1.01914 54.5348 0.417969 55.9864 0.417969 57.5001C0.417969 59.0137 1.01914 60.4654 2.08929 61.5359L17.5417 76.9883V91.7501C17.5417 93.264 18.1432 94.716 19.2137 95.7865C20.2842 96.857 21.7361 97.4584 23.2501 97.4584H38.0118L53.4643 112.911C54.5348 113.981 55.9864 114.582 57.5001 114.582C59.0137 114.582 60.4654 113.981 61.5359 112.911L76.9883 97.4584H91.7501C93.264 97.4584 94.716 96.857 95.7865 95.7865C96.857 94.716 97.4584 93.264 97.4584 91.7501V76.9883L112.911 61.5359C113.981 60.4654 114.582 59.0137 114.582 57.5001C114.582 55.9864 113.981 54.5348 112.911 53.4643Z" fill="#FCCF12"/>
<path d="M48.9378 77.479C47.424 77.4787 45.9723 76.8771 44.902 75.8065L33.4854 64.3898C32.9402 63.8632 32.5053 63.2333 32.2061 62.5369C31.9069 61.8405 31.7495 61.0914 31.7429 60.3335C31.7363 59.5755 31.8807 58.8238 32.1678 58.1223C32.4548 57.4208 32.8786 56.7834 33.4146 56.2475C33.9506 55.7115 34.5879 55.2876 35.2895 55.0006C35.991 54.7136 36.7427 54.5692 37.5006 54.5757C38.2586 54.5823 39.0076 54.7398 39.704 55.039C40.4005 55.3381 41.0304 55.773 41.5569 56.3182L48.9378 63.6991L73.4437 39.1932C74.5203 38.1534 75.9622 37.578 77.4589 37.591C78.9557 37.604 80.3874 38.2044 81.4457 39.2628C82.5041 40.3211 83.1045 41.7528 83.1175 43.2496C83.1305 44.7463 82.5551 46.1882 81.5153 47.2648L52.9736 75.8065C51.9033 76.8771 50.4516 77.4787 48.9378 77.479Z" fill="white"/>
</svg>
