<svg width="32" height="32" viewBox="0 0 32 32" fill="none" xmlns="http://www.w3.org/2000/svg">
<path d="M2.00065 21.9103C2.21831 21.9089 2.43574 21.9249 2.65085 21.9582C2.66818 21.9631 2.68572 21.9655 2.70338 21.969C3.1632 22.0617 3.60081 22.2423 3.99218 22.5008C4.7833 23.0256 5.7159 23.2962 6.66505 23.2762C7.60442 23.2986 8.52818 23.0332 9.31252 22.5158C9.32132 22.5112 9.32978 22.5067 9.33852 22.5015C9.92339 22.0998 10.6201 21.8929 11.3295 21.9103C12.0405 21.8944 12.7388 22.1008 13.3269 22.5008C14.1154 23.0261 15.0462 23.2967 15.9935 23.2762C16.9426 23.2943 17.8749 23.0242 18.6673 22.5015C19.2522 22.0998 19.9489 21.8929 20.6582 21.9103C21.3735 21.8951 22.0758 22.1038 22.6667 22.5073C23.4559 23.0274 24.3845 23.2955 25.3295 23.2762C25.9662 23.2903 26.599 23.1722 27.1879 22.9295C27.4684 22.8056 27.7401 22.6627 28.0012 22.5017C28.5924 22.1068 29.2897 21.9005 30.0007 21.9103C30.1775 21.9103 30.347 21.8401 30.4721 21.7151C30.5971 21.5901 30.6673 21.4205 30.6673 21.2437C30.6673 21.0669 30.5971 20.8973 30.4721 20.7723C30.347 20.6472 30.1775 20.577 30.0007 20.577C29.7415 20.5739 29.4824 20.5922 29.2263 20.6317C28.5487 20.7327 27.9009 20.9785 27.3269 21.3523C27.1148 21.4836 26.8944 21.6006 26.6669 21.7026C26.2429 21.8756 25.7873 21.9574 25.3297 21.9426C24.6122 21.9607 23.9075 21.7508 23.3169 21.343C22.7575 20.9819 22.1291 20.7412 21.4716 20.6363L15.9783 12.614L23.0173 9.09061C23.3269 8.93593 23.5988 8.71517 23.8138 8.44392C24.0288 8.17267 24.1816 7.85754 24.2615 7.52078C24.3414 7.18401 24.3463 6.83382 24.2761 6.49492C24.2058 6.15601 24.062 5.83666 23.8549 5.55941C23.5226 5.13067 23.0552 4.82681 22.5285 4.69717C22.0018 4.56752 21.4468 4.61969 20.9535 4.84521L11.2279 9.44874C10.8899 9.60889 10.5886 9.83715 10.343 10.1192C10.0974 10.4013 9.91272 10.731 9.80055 11.0878C9.68838 11.4446 9.65114 11.8207 9.69118 12.1926C9.73121 12.5644 9.84765 12.924 10.0332 13.2487L11.3259 15.5475L2.70278 20.6231C2.46996 20.5928 2.23544 20.5774 2.00065 20.577C1.82384 20.577 1.65427 20.6472 1.52925 20.7723C1.40422 20.8973 1.33398 21.0669 1.33398 21.2437C1.33398 21.4205 1.40422 21.5901 1.52925 21.7151C1.65427 21.8401 1.82384 21.9103 2.00065 21.9103ZM12.0055 16.6941C12.3108 16.5139 12.5328 16.2206 12.6233 15.8778C12.7138 15.5349 12.6655 15.1703 12.4889 14.8628L11.1901 12.5861C11.0959 12.4208 11.0368 12.2379 11.0166 12.0488C10.9964 11.8597 11.0155 11.6684 11.0726 11.487C11.1298 11.3056 11.2238 11.138 11.3487 10.9946C11.4737 10.8512 11.627 10.7352 11.7989 10.6538L21.5225 6.05161C21.6976 5.96695 21.8933 5.93393 22.0865 5.9564C22.2797 5.97888 22.4626 6.05591 22.6136 6.1785C22.7647 6.30109 22.8777 6.46417 22.9395 6.64864C23.0013 6.83312 23.0092 7.03137 22.9625 7.22021C22.9285 7.3662 22.8624 7.50276 22.7689 7.61991C22.6754 7.73705 22.5569 7.83182 22.4221 7.89727L15.3861 11.4194C15.2132 11.504 15.0606 11.6247 14.9386 11.7734C14.8165 11.9222 14.7279 12.0954 14.6787 12.2814C14.6292 12.4695 14.6207 12.666 14.6538 12.8576C14.687 13.0493 14.761 13.2316 14.8708 13.3921L19.8519 20.6357C19.188 20.7404 18.5538 20.9847 17.9912 21.3523C17.4045 21.7552 16.7052 21.9619 15.9938 21.9429C15.2786 21.96 14.5764 21.7501 13.988 21.3433C13.1996 20.825 12.2727 20.5578 11.3295 20.577C10.3878 20.5565 9.4623 20.8239 8.67678 21.3437C8.66665 21.3489 8.65625 21.3547 8.64618 21.3606C8.06402 21.7593 7.37038 21.9631 6.66505 21.9427C5.95304 21.9598 5.25369 21.7525 4.66598 21.3502C4.57265 21.2955 4.47565 21.2398 4.37638 21.1844L12.0055 16.6941Z" fill="black"/>
<path d="M30.0007 24.6748C29.0522 24.6554 28.1203 24.9255 27.3291 25.4489C26.7341 25.8352 26.04 26.0407 25.3306 26.0407C24.6212 26.0407 23.927 25.8352 23.3321 25.4489C22.5329 24.9433 21.6067 24.6748 20.661 24.6748C19.7153 24.6748 18.789 24.9433 17.9899 25.4489C17.4029 25.8508 16.7044 26.0578 15.9932 26.0407C15.2827 26.0577 14.5849 25.8507 13.9987 25.4489C13.2087 24.9254 12.2779 24.6554 11.3304 24.6748C10.3825 24.6554 9.45115 24.9254 8.66065 25.4489C8.074 25.8508 7.37578 26.0578 6.66492 26.0407C5.95414 26.0578 5.25603 25.8507 4.66945 25.4489C3.87926 24.9255 2.94827 24.6555 2.00065 24.6748C1.82384 24.6748 1.65427 24.745 1.52925 24.8701C1.40422 24.9951 1.33398 25.1647 1.33398 25.3415C1.33398 25.5183 1.40422 25.6879 1.52925 25.8129C1.65427 25.9379 1.82384 26.0081 2.00065 26.0081C2.71135 25.9913 3.40935 26.1984 3.99578 26.6003C4.78612 27.1237 5.71728 27.3938 6.66505 27.3744C7.61293 27.3938 8.54419 27.1237 9.33465 26.6003C9.92131 26.1985 10.6195 25.9914 11.3304 26.0085C12.0408 25.9915 12.7386 26.1985 13.3249 26.6003C14.1148 27.1238 15.0457 27.3938 15.9932 27.3744C16.9414 27.3938 17.8729 27.1238 18.6637 26.6003C19.2584 26.214 19.9522 26.0085 20.6613 26.0085C21.3704 26.0085 22.0642 26.214 22.6589 26.6003C23.4582 27.106 24.3847 27.3744 25.3306 27.3744C26.2764 27.3744 27.2029 27.106 28.0023 26.6003C28.5899 26.1984 29.2889 25.9912 30.0007 26.0081C30.1775 26.0081 30.347 25.9379 30.4721 25.8129C30.5971 25.6879 30.6673 25.5183 30.6673 25.3415C30.6673 25.1647 30.5971 24.9951 30.4721 24.8701C30.347 24.745 30.1775 24.6748 30.0007 24.6748Z" fill="black"/>
<path d="M20.4551 15.0979C20.4551 16.0402 20.7346 16.9613 21.2581 17.7447C21.7816 18.5282 22.5257 19.1388 23.3963 19.4993C24.2668 19.8599 25.2248 19.9542 26.1489 19.7703C27.0731 19.5864 27.922 19.1327 28.5882 18.4664C29.2545 17.8 29.7082 16.9511 29.892 16.0269C30.0758 15.1028 29.9814 14.1449 29.6207 13.2743C29.2601 12.4038 28.6495 11.6598 27.866 11.1363C27.0825 10.6128 26.1613 10.3335 25.2191 10.3335C23.9559 10.3348 22.7449 10.8372 21.8518 11.7305C20.9586 12.6237 20.4563 13.8347 20.4551 15.0979ZM25.2191 11.6668C25.8976 11.6668 26.5609 11.868 27.125 12.245C27.6892 12.6219 28.1289 13.1577 28.3886 13.7846C28.6482 14.4114 28.7162 15.1012 28.5839 15.7667C28.4515 16.4321 28.1248 17.0434 27.645 17.5232C27.1653 18.003 26.554 18.3298 25.8886 18.4622C25.2231 18.5946 24.5333 18.5267 23.9064 18.2671C23.2796 18.0075 22.7438 17.5678 22.3667 17.0037C21.9897 16.4396 21.7885 15.7763 21.7884 15.0978C21.7894 14.1882 22.1512 13.3162 22.7943 12.673C23.4375 12.0298 24.3095 11.6679 25.2191 11.6668Z" fill="black"/>
</svg>
