<svg width="32" height="30" viewBox="0 0 32 30" fill="none" xmlns="http://www.w3.org/2000/svg">
<path d="M30.4 16.0669H29.8667V4.86689C29.8667 2.20021 27.7334 0.0668945 25.0667 0.0668945C22.7061 0.0668945 21.0082 1.81727 20.8183 4.38196C19.579 4.61621 18.6667 5.68358 18.6667 7.00021C18.6667 7.32021 18.88 7.53352 19.2 7.53352H23.4667C23.7867 7.53352 24 7.32021 24 7.00021C24 5.69814 23.1079 4.63964 21.8896 4.38977C22.0489 2.69502 23.0668 1.13352 25.0667 1.13352C27.1467 1.13352 28.8 2.78683 28.8 4.86683V16.0668H12.7484C12.5072 14.8368 11.4436 13.9335 10.1334 13.9335C9.60006 13.2935 8.85338 12.8668 8.00006 12.8668C6.98675 12.8668 6.08006 13.4535 5.65338 14.3068C5.22669 14.0935 4.74669 13.9335 4.26669 13.9335C2.9565 13.9335 1.89288 14.8368 1.65163 16.0668H1.6C0.693313 16.0668 0 16.7601 0 17.6668C0 18.5735 0.693313 19.2668 1.6 19.2668H2.24094L3.68 24.9735C4.10669 26.6268 5.6 27.8002 7.30669 27.8002H7.73338L7.04006 29.1869C6.88006 29.4536 6.98675 29.7736 7.25338 29.8802C7.30669 29.9335 7.41338 29.9335 7.46669 29.9335C7.68 29.9335 7.84 29.8268 7.94669 29.6668L8.88 27.8002H23.68L24.5867 29.6135C24.6934 29.8268 24.8534 29.9335 25.0667 29.9335C25.1734 29.9335 25.2267 29.9335 25.28 29.8268C25.4933 29.7201 25.6 29.4001 25.4933 29.1335L24.8253 27.7973C26.4764 27.7387 27.9044 26.5855 28.32 25.0268L29.7725 19.2668H30.4C31.3067 19.2668 32 18.5735 32 17.6668C32 16.7602 31.3067 16.0669 30.4 16.0669ZM22.88 6.46689H19.84C20.0533 5.82689 20.6933 5.40021 21.3867 5.40021C22.0801 5.40021 22.6667 5.82689 22.88 6.46689ZM4.26669 15.0002C4.74669 15.0002 5.17338 15.2135 5.54669 15.5869C5.65338 15.7469 5.86669 15.8002 6.08 15.7469C6.29331 15.6936 6.4 15.5336 6.45331 15.3202C6.61331 14.5202 7.25331 13.9335 8.05331 13.9335C8.64 13.9335 9.17331 14.2002 9.44 14.7335C9.54669 14.9468 9.81331 15.0535 10.0267 15.0002C10.08 15.0002 10.1334 15.0002 10.1867 15.0002C10.88 15.0002 11.4667 15.4269 11.68 16.0669H2.77331C2.98669 15.4269 3.57331 15.0002 4.26669 15.0002ZM27.36 24.7069C27.04 25.8802 25.9733 26.7336 24.7467 26.7336H7.36C6.13331 26.7336 5.06669 25.8803 4.74669 24.7069L3.36 19.2669H28.64L27.36 24.7069ZM30.4 18.2002H29.3333H2.66669H1.6C1.28 18.2002 1.06669 17.9869 1.06669 17.6669C1.06669 17.3469 1.28 17.1336 1.6 17.1336H2.13331H12.2666H30.4C30.72 17.1336 30.9333 17.3469 30.9333 17.6669C30.9333 17.9869 30.72 18.2002 30.4 18.2002Z" fill="black"/>
<path d="M19.1993 9.93341C19.5193 9.93341 19.7326 9.7201 19.7326 9.4001V9.13341C19.7326 8.81341 19.5193 8.6001 19.1993 8.6001C18.8793 8.6001 18.666 8.81341 18.666 9.13341V9.4001C18.666 9.7201 18.8793 9.93341 19.1993 9.93341Z" fill="black"/>
<path d="M19.1993 12.3867C19.5193 12.3867 19.7326 12.12 19.7326 11.8534V11.2667C19.7326 10.9467 19.5193 10.7334 19.1993 10.7334C18.8793 10.7334 18.666 10.9467 18.666 11.2667V11.8534C18.666 12.1733 18.8793 12.3867 19.1993 12.3867Z" fill="black"/>
<path d="M19.1993 14.4671C19.5193 14.4671 19.7326 14.2538 19.7326 13.9338V13.6671C19.7326 13.3471 19.5193 13.1338 19.1993 13.1338C18.8793 13.1338 18.666 13.3471 18.666 13.6671V13.9338C18.666 14.2537 18.8793 14.4671 19.1993 14.4671Z" fill="black"/>
<path d="M21.3341 9.93341C21.6541 9.93341 21.8674 9.7201 21.8674 9.4001V9.13341C21.8674 8.81341 21.6541 8.6001 21.3341 8.6001C21.0141 8.6001 20.8008 8.81341 20.8008 9.13341V9.4001C20.8008 9.7201 21.0141 9.93341 21.3341 9.93341Z" fill="black"/>
<path d="M20.8008 11.8534C20.8008 12.1734 21.0141 12.3867 21.3341 12.3867C21.6541 12.3867 21.8674 12.12 21.8674 11.8534V11.2667C21.8674 10.9467 21.6541 10.7334 21.3341 10.7334C21.0141 10.7334 20.8008 10.9467 20.8008 11.2667V11.8534Z" fill="black"/>
<path d="M20.8008 13.9333C20.8008 14.2533 21.0141 14.4666 21.3341 14.4666C21.6541 14.4666 21.8674 14.2533 21.8674 13.9333V13.6666C21.8674 13.3466 21.6541 13.1333 21.3341 13.1333C21.0141 13.1333 20.8008 13.3466 20.8008 13.6666V13.9333Z" fill="black"/>
<path d="M23.4669 9.93341C23.7869 9.93341 24.0002 9.7201 24.0002 9.4001V9.13341C24.0002 8.81341 23.7869 8.6001 23.4669 8.6001C23.1469 8.6001 22.9336 8.81341 22.9336 9.13341V9.4001C22.9335 9.7201 23.1469 9.93341 23.4669 9.93341Z" fill="black"/>
<path d="M22.9336 11.8534C22.9336 12.1734 23.1469 12.3867 23.4669 12.3867C23.7869 12.3867 24.0003 12.1201 24.0003 11.8534V11.2667C24.0003 10.9467 23.787 10.7334 23.467 10.7334C23.147 10.7334 22.9337 10.9467 22.9337 11.2667L22.9336 11.8534Z" fill="black"/>
<path d="M22.9336 13.9333C22.9336 14.2533 23.1469 14.4666 23.4669 14.4666C23.7869 14.4666 24.0002 14.2533 24.0002 13.9333V13.6666C24.0002 13.3466 23.7869 13.1333 23.4669 13.1333C23.1469 13.1333 22.9336 13.3466 22.9336 13.6666V13.9333Z" fill="black"/>
</svg>
