<svg width="33" height="32" viewBox="0 0 33 32" fill="none" xmlns="http://www.w3.org/2000/svg">
<path d="M31.3921 22.1795V13.1248C31.3921 13.0379 31.3576 12.9545 31.2962 12.8931C31.2347 12.8316 31.1513 12.7971 31.0644 12.7971H27.0959V10.2056H28.5218C28.5708 10.2055 28.6192 10.1945 28.6633 10.1734C28.7075 10.1522 28.7464 10.1214 28.7771 10.0832C28.8078 10.0451 28.8295 10.0005 28.8407 9.95284C28.8519 9.90516 28.8523 9.85558 28.8418 9.80773L28.1068 6.45498C28.0549 6.22359 27.9261 6.01665 27.7413 5.86801C27.5566 5.71937 27.3269 5.63782 27.0897 5.63672H25.0676C24.8305 5.63785 24.6008 5.71939 24.4161 5.86801C24.2313 6.01663 24.1025 6.22353 24.0506 6.45488L23.3155 9.80773C23.3051 9.85558 23.3054 9.90516 23.3166 9.95284C23.3278 10.0005 23.3496 10.0451 23.3803 10.0832C23.411 10.1214 23.4499 10.1522 23.494 10.1734C23.5382 10.1945 23.5866 10.2055 23.6355 10.2056H25.0616V12.7971H22.8746C22.7877 12.7971 22.7043 12.8316 22.6429 12.8931C22.5814 12.9545 22.5469 13.0379 22.5469 13.1248C22.5469 13.2117 22.5814 13.2951 22.6429 13.3565C22.7043 13.418 22.7877 13.4525 22.8746 13.4525H30.7367V16.2557H26.0788C25.9919 16.2557 25.9086 16.2903 25.8471 16.3517C25.7856 16.4132 25.7511 16.4965 25.7511 16.5834C25.7511 16.6704 25.7856 16.7537 25.8471 16.8152C25.9086 16.8766 25.9919 16.9112 26.0788 16.9112H30.7367V19.7144H26.6974C26.6539 19.7136 26.6107 19.7216 26.5703 19.7377C26.5299 19.7538 26.4931 19.7779 26.4621 19.8083C26.431 19.8389 26.4064 19.8752 26.3896 19.9153C26.3728 19.9555 26.3641 19.9985 26.3641 20.042C26.3641 20.0855 26.3728 20.1286 26.3896 20.1687C26.4064 20.2089 26.431 20.2452 26.4621 20.2757C26.4931 20.3062 26.5299 20.3302 26.5703 20.3464C26.6107 20.3625 26.6539 20.3704 26.6974 20.3697H28.3216C28.3483 20.3859 28.3773 20.3981 28.4076 20.4059C29.8175 20.7509 29.7091 22.0906 29.7041 22.146C29.6993 22.1916 29.7043 22.2377 29.7185 22.2813C29.7328 22.3249 29.756 22.365 29.7867 22.3991C29.8174 22.4331 29.855 22.4603 29.8969 22.479C29.9388 22.4976 29.9841 22.5072 30.03 22.5072H31.0642C31.1073 22.5072 31.1499 22.4988 31.1897 22.4823C31.2295 22.4659 31.2656 22.4417 31.2961 22.4113C31.3265 22.3809 31.3507 22.3447 31.3672 22.305C31.3837 22.2652 31.3921 22.2225 31.3921 22.1795ZM24.691 6.59531C24.7102 6.50963 24.7579 6.433 24.8262 6.37792C24.8946 6.32284 24.9796 6.29257 25.0674 6.29206H27.0897C27.1775 6.29257 27.2626 6.32284 27.331 6.37792C27.3993 6.433 27.447 6.50963 27.4662 6.59531L28.1139 9.55013H24.043L24.691 6.59531ZM25.7169 10.2056H26.4403V12.7971H25.7169V10.2056ZM30.3592 21.8518C30.3225 21.2932 30.085 20.7668 29.6905 20.3697H30.7367V21.8518H30.3592Z" fill="black"/>
<path d="M1.93672 26.3629H3.27319C3.35422 26.3628 3.43234 26.3327 3.49251 26.2784C3.55269 26.2242 3.59066 26.1496 3.59912 26.069C3.60928 25.9725 3.87046 23.7012 5.84298 23.25C5.8537 23.2476 5.8633 23.2432 5.87347 23.2398H21.2615C21.2709 23.2427 21.2791 23.2468 21.2886 23.2492C23.2658 23.6978 23.5274 25.9727 23.5375 26.0687C23.5457 26.1495 23.5835 26.2243 23.6438 26.2787C23.704 26.3332 23.7823 26.3633 23.8635 26.3633H25.2C25.243 26.3633 25.2856 26.3548 25.3254 26.3384C25.3651 26.3219 25.4013 26.2978 25.4317 26.2673C25.4621 26.2369 25.4863 26.2008 25.5027 26.161C25.5192 26.1213 25.5277 26.0787 25.5277 26.0356V22.9121V18.8479C25.5269 18.1876 25.2816 17.5509 24.8391 17.0608C23.7526 15.8518 22.2626 14.8789 21.5005 14.422C21.6213 14.3084 21.7176 14.1712 21.7834 14.019C21.8493 13.8668 21.8833 13.7027 21.8834 13.5368C21.8833 13.2374 21.8211 12.9413 21.7006 12.6672C21.58 12.3931 21.4039 12.147 21.1833 11.9445V10.1281C21.1828 9.6374 20.9876 9.16698 20.6406 8.82002C20.2937 8.47305 19.8232 8.27789 19.3326 8.27734H7.80429C7.31363 8.27792 6.84324 8.47309 6.4963 8.82005C6.14936 9.16701 5.95421 9.63741 5.95366 10.1281V11.9445C5.73306 12.147 5.55693 12.3931 5.43644 12.6672C5.31595 12.9413 5.25372 13.2374 5.2537 13.5368C5.25377 13.7027 5.28776 13.8668 5.35361 14.019C5.41945 14.1712 5.51575 14.3084 5.63658 14.422C4.87422 14.8789 3.38443 15.8518 2.29794 17.0608C1.85544 17.5509 1.61015 18.1876 1.60938 18.8479V22.912V26.0352C1.60935 26.122 1.64382 26.2054 1.7052 26.2668C1.76658 26.3283 1.84986 26.3628 1.93672 26.3629ZM24.8726 22.5844H2.26443V20.4636H24.8726V22.5844ZM2.99432 25.7076H2.26443V23.2398H4.38425C3.43432 24.0029 3.1017 25.1649 2.99432 25.7076ZM24.1426 25.7076C24.0353 25.1649 23.7026 24.0029 22.7527 23.2398H24.8724V25.7076H24.1426ZM20.6636 14.1016H13.8965V13.6304C13.8896 13.179 14.0566 12.7422 14.3628 12.4105C14.6691 12.0788 15.0913 11.8776 15.5418 11.8485C15.5762 11.8468 15.6112 11.8458 15.6467 11.8458H18.4898H18.5037C18.5146 11.8452 19.5766 11.8055 20.3954 12.1947C20.6465 12.3175 20.8578 12.5085 21.0052 12.746C21.1525 12.9834 21.23 13.2576 21.2286 13.537C21.2283 13.6868 21.1687 13.8303 21.0628 13.9361C20.9569 14.042 20.8133 14.1015 20.6636 14.1016ZM7.80429 8.93316H19.333C19.6499 8.9335 19.9537 9.05955 20.1778 9.28363C20.4019 9.50772 20.5279 9.81154 20.5282 10.1284V11.537C19.6247 11.1614 18.5912 11.1868 18.4834 11.1905H15.6465C15.5996 11.1905 15.5537 11.1916 15.5087 11.194C15.1105 11.215 14.724 11.3361 14.3849 11.5459C14.0459 11.7557 13.7651 12.0476 13.5685 12.3945C13.372 12.0476 13.0913 11.7558 12.7523 11.5459C12.4132 11.3361 12.0268 11.2151 11.6287 11.194C11.5834 11.1916 11.5374 11.1904 11.4906 11.1905H8.6538C8.54613 11.1868 7.51243 11.1613 6.60881 11.537V10.1284C6.60916 9.81151 6.73523 9.50766 6.95936 9.28357C7.18348 9.05948 7.48736 8.93345 7.80429 8.93316ZM6.74199 12.1945C7.4202 11.8721 8.2729 11.8444 8.54566 11.8444C8.60062 11.8444 8.63196 11.8455 8.63375 11.8456H8.64749H11.4906C11.5262 11.8456 11.5612 11.8465 11.5957 11.8484C12.0462 11.8774 12.4683 12.0786 12.7746 12.4103C13.0808 12.742 13.2478 13.1788 13.2408 13.6302V14.1014H6.47375C6.32404 14.1012 6.18052 14.0417 6.07466 13.9358C5.9688 13.83 5.90925 13.6864 5.90905 13.5367C5.90765 13.2573 5.98505 12.9832 6.13239 12.7458C6.27972 12.5084 6.491 12.3173 6.74199 12.1945ZM2.785 17.4989C4.06293 16.077 6.0057 14.9577 6.37455 14.752C6.4073 14.7546 6.44043 14.757 6.47356 14.757H20.6636C20.697 14.757 20.7295 14.7546 20.7626 14.752C21.1314 14.9578 23.0742 16.077 24.3521 17.4989C24.6863 17.8688 24.8718 18.3493 24.8726 18.8479V19.8079H2.26443V18.8479C2.26534 18.3494 2.45078 17.8688 2.785 17.4989Z" fill="black"/>
<path d="M26.8746 15.1037C27.0556 15.1037 27.2023 14.957 27.2023 14.776C27.2023 14.595 27.0556 14.4482 26.8746 14.4482C26.6936 14.4482 26.5469 14.595 26.5469 14.776C26.5469 14.957 26.6936 15.1037 26.8746 15.1037Z" fill="black"/>
<path d="M26.8746 18.7189C27.0556 18.7189 27.2023 18.5722 27.2023 18.3912C27.2023 18.2102 27.0556 18.0635 26.8746 18.0635C26.6936 18.0635 26.5469 18.2102 26.5469 18.3912C26.5469 18.5722 26.6936 18.7189 26.8746 18.7189Z" fill="black"/>
</svg>
