<svg width="32" height="32" viewBox="0 0 32 32" fill="none" xmlns="http://www.w3.org/2000/svg">
<g clip-path="url(#clip0_1142_5065)">
<path d="M30.3349 13.5501H27.5799C27.5476 13.2972 27.4613 13.0542 27.3267 12.8376C27.1921 12.621 27.0124 12.436 26.7999 12.2951C26.5384 12.1192 26.239 12.0076 25.9262 11.9694C25.6134 11.9312 25.296 11.9674 24.9999 12.0751C24.7016 11.608 24.254 11.2555 23.7299 11.0751C23.0796 10.8367 22.3619 10.8618 21.7299 11.1451C21.3981 10.6978 20.9265 10.374 20.3899 10.2251C19.7153 10.0573 19.0024 10.1464 18.3899 10.4751C17.7405 10.0833 16.9654 9.95624 16.2249 10.1201C15.7382 10.2414 15.3066 10.5233 14.9999 10.9201C14.381 10.6315 13.6736 10.5974 13.0299 10.8251C12.4674 11.0406 12.0068 11.4602 11.7399 12.0001C11.4229 11.9117 11.0895 11.8986 10.7666 11.962C10.4436 12.0254 10.14 12.1634 9.87987 12.3651C9.69441 12.5101 9.54029 12.6912 9.42684 12.8974C9.3134 13.1037 9.24299 13.3308 9.21987 13.5651H2.65487V4.00011C2.65617 3.88913 2.70084 3.78305 2.77932 3.70456C2.85781 3.62608 2.96388 3.58141 3.07487 3.58011H5.89987C6.01086 3.58141 6.11694 3.62608 6.19542 3.70456C6.27391 3.78305 6.31857 3.88913 6.31987 4.00011V4.54011C5.75519 4.65538 5.24767 4.9622 4.88322 5.40866C4.51876 5.85512 4.31975 6.41379 4.31987 6.99011C4.31987 7.12272 4.37255 7.2499 4.46632 7.34367C4.56009 7.43743 4.68726 7.49011 4.81987 7.49011H8.84987C8.98248 7.49011 9.10966 7.43743 9.20342 7.34367C9.29719 7.2499 9.34987 7.12272 9.34987 6.99011C9.34999 6.41379 9.15098 5.85512 8.78652 5.40866C8.42207 4.9622 7.91455 4.65538 7.34987 4.54011V4.00011C7.34735 3.81389 7.30756 3.63005 7.23285 3.45945C7.15814 3.28885 7.05003 3.13493 6.91489 3.00678C6.77974 2.87863 6.62031 2.77883 6.44598 2.71328C6.27166 2.64773 6.08597 2.61775 5.89987 2.62511H3.07487C2.7092 2.62639 2.35865 2.77119 2.09868 3.02835C1.83871 3.28552 1.69011 3.63448 1.68487 4.00011V13.5501C1.33715 13.5499 0.998046 13.6583 0.714871 13.8601C0.640274 13.9127 0.570045 13.9712 0.504871 14.0351C0.272656 14.2682 0.114727 14.565 0.0510277 14.8878C-0.012672 15.2106 0.0207137 15.5451 0.146969 15.849C0.273224 16.1528 0.486687 16.4125 0.760404 16.5951C1.03412 16.7777 1.35582 16.8752 1.68487 16.8751V18.4401C1.68823 19.6489 1.98369 20.8389 2.54608 21.9088C3.10848 22.9788 3.92115 23.8969 4.91487 24.5851L3.86987 28.7701C3.85272 28.8424 3.8519 28.9176 3.86747 28.9903C3.88304 29.0629 3.91461 29.1312 3.95987 29.1901C4.0064 29.2475 4.06505 29.2938 4.13162 29.3258C4.19819 29.3578 4.27102 29.3746 4.34487 29.3751H6.16987C6.25314 29.3736 6.33472 29.3513 6.4072 29.3103C6.47967 29.2692 6.54074 29.2107 6.58487 29.1401L8.54487 25.8851C8.74987 25.8851 8.95487 25.9151 9.16487 25.9151H22.8349C23.0449 25.9151 23.2549 25.9151 23.4599 25.8851L25.4199 29.1401C25.464 29.2107 25.5251 29.2692 25.5975 29.3103C25.67 29.3513 25.7516 29.3736 25.8349 29.3751H27.6599C27.7329 29.3739 27.8047 29.3567 27.8704 29.3247C27.936 29.2928 27.9939 29.2468 28.0399 29.1901C28.0851 29.1312 28.1167 29.0629 28.1323 28.9903C28.1478 28.9176 28.147 28.8424 28.1299 28.7701L27.0899 24.5851C28.0827 23.8964 28.8944 22.978 29.4559 21.9081C30.0174 20.8382 30.3121 19.6484 30.3149 18.4401V16.8751C30.5409 16.8875 30.767 16.8537 30.9795 16.7758C31.192 16.6978 31.3863 16.5774 31.5507 16.4218C31.7151 16.2662 31.846 16.0787 31.9355 15.8708C32.0249 15.6629 32.0711 15.4389 32.0711 15.2126C32.0711 14.9863 32.0249 14.7623 31.9355 14.5544C31.846 14.3465 31.7151 14.1591 31.5507 14.0035C31.3863 13.8479 31.192 13.7274 30.9795 13.6495C30.767 13.5715 30.5409 13.5377 30.3149 13.5501H30.3349ZM8.25487 6.50011H5.35487C5.45709 6.19654 5.65202 5.93271 5.91216 5.74581C6.17231 5.55891 6.48455 5.45838 6.80487 5.45838C7.12519 5.45838 7.43744 5.55891 7.69758 5.74581C7.95772 5.93271 8.15265 6.19654 8.25487 6.50011ZM10.4999 13.1101C10.6853 12.9737 10.9064 12.894 11.1363 12.8807C11.3661 12.8673 11.5949 12.921 11.7949 13.0351C11.8575 13.0681 11.9265 13.0874 11.9972 13.0917C12.0679 13.096 12.1387 13.0852 12.2049 13.0601C12.2701 13.0328 12.3288 12.9919 12.3771 12.9402C12.4253 12.8884 12.4621 12.8271 12.4849 12.7601C12.548 12.5312 12.6622 12.3195 12.819 12.1411C12.9757 11.9627 13.1709 11.8222 13.3899 11.7301C13.6491 11.6487 13.9234 11.6276 14.1921 11.6683C14.4607 11.7091 14.7164 11.8106 14.9399 11.9651C14.9968 11.998 15.0597 12.0194 15.1249 12.028C15.1901 12.0366 15.2564 12.0322 15.3199 12.0151C15.446 11.9771 15.552 11.8908 15.6149 11.7751C15.6997 11.5961 15.8216 11.4371 15.9724 11.3087C16.1232 11.1803 16.2996 11.0853 16.4899 11.0301C16.7789 10.9792 17.0752 10.9879 17.3607 11.0559C17.6462 11.1238 17.9148 11.2495 18.1499 11.4251C18.2288 11.4738 18.3197 11.4996 18.4124 11.4996C18.5051 11.4996 18.596 11.4738 18.6749 11.4251C18.887 11.2768 19.1281 11.1752 19.3823 11.1269C19.6366 11.0786 19.8982 11.0848 20.1499 11.1451C20.3687 11.2032 20.5719 11.3091 20.7448 11.4553C20.9177 11.6014 21.0561 11.7841 21.1499 11.9901C21.1817 12.0522 21.2261 12.107 21.2804 12.151C21.3346 12.1949 21.3975 12.227 21.4649 12.2451C21.5331 12.2614 21.6039 12.2631 21.6728 12.2502C21.7418 12.2372 21.8072 12.21 21.8649 12.1701C22.0862 12.0145 22.3419 11.9151 22.6102 11.8802C22.8785 11.8454 23.1512 11.8762 23.4049 11.9701C23.6174 12.0375 23.8104 12.1555 23.9672 12.314C24.124 12.4725 24.2399 12.6668 24.3049 12.8801C24.3264 12.9551 24.3652 13.024 24.4182 13.0813C24.4712 13.1386 24.5368 13.1827 24.6099 13.2101C24.684 13.2348 24.7628 13.2418 24.8401 13.2305C24.9174 13.2192 24.9909 13.1899 25.0549 13.1451C25.2294 13.0098 25.442 12.9327 25.6626 12.9247C25.8833 12.9166 26.1009 12.978 26.2849 13.1001C26.4443 13.2111 26.5636 13.3707 26.6249 13.5551H18.8099C18.7214 13.2949 18.5538 13.0688 18.3306 12.9083C18.1075 12.7479 17.8397 12.6611 17.5649 12.6601H14.2999C14.0255 12.6606 13.7582 12.7473 13.5357 12.9079C13.3132 13.0685 13.1468 13.2949 13.0599 13.5551H10.1949C10.2452 13.3774 10.3523 13.2211 10.4999 13.1101ZM17.9349 17.4251H13.9549V16.3901V14.0351V13.9751C13.9549 13.8831 13.991 13.7949 14.0556 13.7294C14.1202 13.6639 14.2079 13.6264 14.2999 13.6251H17.5649C17.6108 13.6251 17.6563 13.6342 17.6988 13.6518C17.7413 13.6693 17.7799 13.6951 17.8124 13.7276C17.8449 13.7601 17.8706 13.7987 17.8882 13.8412C17.9058 13.8836 17.9149 13.9292 17.9149 13.9751L17.9349 17.4251ZM13.9749 18.3951H17.9349V19.2101H13.9549L13.9749 18.3951ZM0.974871 15.2101C0.972986 15.1176 0.989721 15.0257 1.02408 14.9398C1.05844 14.8539 1.10972 14.7758 1.17487 14.7101C1.20102 14.6822 1.23139 14.6586 1.26487 14.6401C1.38069 14.5535 1.52034 14.5047 1.66487 14.5001H12.9999V15.8901H1.66487C1.48312 15.8902 1.30858 15.819 1.17866 15.6919C1.04875 15.5648 0.973794 15.3918 0.969871 15.2101H0.974871ZM5.89987 28.4051H4.96487L5.78487 25.1001C6.32809 25.3795 6.90428 25.5895 7.49987 25.7251L5.89987 28.4051ZM27.0449 28.4051H26.1049L24.4999 25.7251C25.0972 25.5899 25.6751 25.3799 26.2199 25.1001L27.0449 28.4051ZM29.3499 18.4401C29.3499 19.2937 29.1817 20.1389 28.8551 20.9276C28.5284 21.7162 28.0496 22.4327 27.4461 23.0363C26.8425 23.6399 26.1259 24.1187 25.3373 24.4453C24.5487 24.772 23.7035 24.9401 22.8499 24.9401H9.16487C7.44096 24.9401 5.78766 24.2553 4.56868 23.0363C3.34969 21.8173 2.66487 20.164 2.66487 18.4401V16.8751H12.9999V19.6601C13.0102 19.7893 13.0661 19.9106 13.1578 20.0022C13.2494 20.0938 13.3707 20.1498 13.4999 20.1601H18.3599C18.489 20.1498 18.6103 20.0938 18.702 20.0022C18.7936 19.9106 18.8496 19.7893 18.8599 19.6601V16.8751H29.3449L29.3499 18.4401ZM30.8499 15.7001C30.7851 15.7669 30.7073 15.8196 30.6213 15.8548C30.5352 15.8901 30.4428 15.9072 30.3499 15.9051H18.8849V14.5001H30.3349C30.5192 14.5001 30.696 14.5733 30.8263 14.7037C30.9566 14.834 31.0299 15.0108 31.0299 15.1951C31.0324 15.2884 31.016 15.3813 30.9817 15.4681C30.9473 15.5549 30.8956 15.6338 30.8299 15.7001H30.8499Z" fill="black"/>
<path d="M13.5556 10.3801C13.8261 10.3801 14.0906 10.3 14.3157 10.1499C14.5407 9.99983 14.7163 9.78645 14.8203 9.5367C14.9243 9.28694 14.952 9.012 14.8999 8.74652C14.8479 8.48104 14.7184 8.23692 14.5278 8.04493C14.3372 7.85294 14.094 7.72168 13.8289 7.66769C13.5638 7.61371 13.2887 7.63941 13.0382 7.74157C12.7877 7.84373 12.573 8.01777 12.4213 8.24175C12.2696 8.46573 12.1876 8.72961 12.1856 9.00014C12.1843 9.18089 12.2187 9.36011 12.287 9.52748C12.3552 9.69486 12.4559 9.84707 12.5833 9.97534C12.7106 10.1036 12.8621 10.2054 13.029 10.2749C13.1959 10.3444 13.3748 10.3801 13.5556 10.3801ZM13.5556 8.61014C13.6347 8.61014 13.712 8.6336 13.7778 8.67755C13.8436 8.7215 13.8949 8.78397 13.9251 8.85706C13.9554 8.93015 13.9633 9.01058 13.9479 9.08817C13.9325 9.16577 13.8944 9.23704 13.8384 9.29298C13.7825 9.34892 13.7112 9.38702 13.6336 9.40245C13.556 9.41789 13.4756 9.40996 13.4025 9.37969C13.3294 9.34941 13.2669 9.29815 13.223 9.23237C13.179 9.16659 13.1556 9.08925 13.1556 9.01014C13.1556 8.90405 13.1977 8.80231 13.2727 8.72729C13.3478 8.65228 13.4495 8.61014 13.5556 8.61014Z" fill="black"/>
<path d="M18.2802 9.13502C18.5511 9.13502 18.816 9.05467 19.0413 8.90413C19.2666 8.7536 19.4422 8.53963 19.5459 8.2893C19.6496 8.03896 19.6767 7.7635 19.6238 7.49775C19.571 7.23199 19.4405 6.98788 19.2489 6.79628C19.0573 6.60469 18.8132 6.47421 18.5474 6.42134C18.2817 6.36848 18.0062 6.39561 17.7559 6.49931C17.5055 6.603 17.2916 6.77859 17.141 7.00389C16.9905 7.22918 16.9102 7.49406 16.9102 7.76502C16.9102 7.94493 16.9456 8.12308 17.0144 8.2893C17.0833 8.45551 17.1842 8.60654 17.3114 8.73376C17.4386 8.86097 17.5897 8.96189 17.7559 9.03074C17.9221 9.09958 18.1002 9.13502 18.2802 9.13502ZM18.2802 7.36502C18.3593 7.36502 18.4366 7.38848 18.5024 7.43243C18.5682 7.47638 18.6194 7.53886 18.6497 7.61195C18.68 7.68504 18.6879 7.76546 18.6725 7.84306C18.657 7.92065 18.6189 7.99192 18.563 8.04786C18.5071 8.1038 18.4358 8.1419 18.3582 8.15733C18.2806 8.17277 18.2002 8.16485 18.1271 8.13457C18.054 8.1043 17.9915 8.05303 17.9476 7.98725C17.9036 7.92147 17.8802 7.84413 17.8802 7.76502C17.8802 7.65893 17.9223 7.55719 17.9973 7.48218C18.0723 7.40716 18.1741 7.36502 18.2802 7.36502Z" fill="black"/>
<path d="M23.2255 9.78981C23.4964 9.78981 23.7613 9.70946 23.9866 9.55892C24.2119 9.40838 24.3875 9.19442 24.4912 8.94408C24.5949 8.69375 24.622 8.41829 24.5691 8.15253C24.5163 7.88678 24.3858 7.64267 24.1942 7.45107C24.0026 7.25947 23.7585 7.12899 23.4927 7.07613C23.227 7.02327 22.9515 7.0504 22.7012 7.15409C22.4509 7.25778 22.2369 7.43338 22.0864 7.65867C21.9358 7.88397 21.8555 8.14885 21.8555 8.41981C21.8555 8.59972 21.8909 8.77787 21.9598 8.94408C22.0286 9.1103 22.1295 9.26133 22.2567 9.38854C22.3839 9.51576 22.535 9.61667 22.7012 9.68552C22.8674 9.75437 23.0456 9.78981 23.2255 9.78981ZM23.2255 8.01981C23.3046 8.01981 23.3819 8.04326 23.4477 8.08722C23.5135 8.13117 23.5647 8.19364 23.595 8.26673C23.6253 8.33982 23.6332 8.42025 23.6178 8.49784C23.6023 8.57543 23.5643 8.64671 23.5083 8.70265C23.4524 8.75859 23.3811 8.79669 23.3035 8.81212C23.2259 8.82755 23.1455 8.81963 23.0724 8.78936C22.9993 8.75908 22.9368 8.70781 22.8929 8.64203C22.8489 8.57625 22.8255 8.49892 22.8255 8.41981C22.8228 8.36562 22.8311 8.31145 22.85 8.26058C22.8689 8.20972 22.8979 8.16323 22.9353 8.12394C22.9727 8.08466 23.0177 8.05339 23.0676 8.03205C23.1175 8.01071 23.1712 7.99974 23.2255 7.99981V8.01981Z" fill="black"/>
<path d="M4.7103 8.53489L4.5003 9.18489C4.46304 9.30696 4.47387 9.43866 4.53058 9.553C4.58728 9.66734 4.68557 9.75567 4.8053 9.79989C4.85652 9.80951 4.90908 9.80951 4.9603 9.79989C5.06134 9.79782 5.15938 9.76517 5.2415 9.70626C5.32362 9.64735 5.38596 9.56494 5.4203 9.46989L5.6403 8.81989C5.68105 8.7559 5.70672 8.68348 5.71534 8.60811C5.72396 8.53274 5.71532 8.45639 5.69007 8.38485C5.66482 8.31331 5.62362 8.24846 5.5696 8.1952C5.51557 8.14194 5.45013 8.10167 5.37824 8.07745C5.30635 8.05322 5.22988 8.04567 5.15464 8.05537C5.0794 8.06508 5.00735 8.09177 4.94396 8.13344C4.88056 8.17511 4.82748 8.23066 4.78873 8.29588C4.74998 8.3611 4.72657 8.43428 4.7203 8.50989L4.7103 8.53489Z" fill="black"/>
<path d="M5.83007 8.55023L5.75507 9.33523C5.74638 9.46237 5.78657 9.58802 5.86742 9.68653C5.94827 9.78504 6.06368 9.84895 6.19007 9.86522H6.23507C6.35791 9.86611 6.47678 9.82175 6.569 9.74059C6.66122 9.65944 6.72033 9.54718 6.73507 9.42523L6.81007 8.64023C6.79356 8.53012 6.74078 8.42867 6.66008 8.35196C6.57938 8.27525 6.47539 8.22767 6.36458 8.21676C6.25378 8.20585 6.1425 8.23224 6.0484 8.29174C5.95429 8.35124 5.88273 8.44045 5.84507 8.54523L5.83007 8.55023Z" fill="black"/>
<path d="M7.32024 8.05501C7.19558 8.06628 7.07968 8.12389 6.99543 8.21646C6.91119 8.30904 6.86473 8.42984 6.86524 8.55501L6.91524 9.39501C6.92531 9.52057 6.98241 9.6377 7.07511 9.72298C7.16781 9.80826 7.28928 9.85541 7.41524 9.85501H7.44524C7.5699 9.84375 7.6858 9.78614 7.77005 9.69356C7.85429 9.60099 7.90075 9.48018 7.90024 9.35501L7.83524 8.50001C7.82143 8.37452 7.76067 8.2589 7.66514 8.17636C7.56962 8.09382 7.4464 8.05047 7.32024 8.05501Z" fill="black"/>
<path d="M8.31488 8.13014C8.19254 8.1632 8.08732 8.24148 8.02049 8.34915C7.95367 8.45681 7.93021 8.58584 7.95488 8.71014L8.14488 9.50014C8.17195 9.60517 8.23243 9.69854 8.31721 9.76618C8.40199 9.83382 8.50646 9.87207 8.61488 9.87514C8.65305 9.88 8.6917 9.88 8.72988 9.87514C8.85325 9.84207 8.95929 9.76303 9.02623 9.65424C9.09317 9.54546 9.11595 9.41518 9.08988 9.29014L8.89988 8.50014C8.86892 8.37492 8.79077 8.2665 8.68175 8.19755C8.57273 8.12859 8.44128 8.10444 8.31488 8.13014Z" fill="black"/>
</g>
<defs>
<clipPath id="clip0_1142_5065">
<rect width="32" height="32" fill="white"/>
</clipPath>
</defs>
</svg>
