<svg width="32" height="32" viewBox="0 0 32 32" fill="none" xmlns="http://www.w3.org/2000/svg">
<g clip-path="url(#clip0_1142_5047)">
<path d="M18.1406 20.2548C18.1406 23.1984 20.5268 25.5846 23.4704 25.5846C26.4137 25.5846 28.7999 23.1984 28.7999 20.2548C28.7999 17.3115 26.4137 14.9253 23.4704 14.9253C20.5281 14.9285 18.1439 17.3128 18.1406 20.2548ZM23.4704 15.9911C25.8252 15.9911 27.7341 17.9 27.7341 20.2548C27.7341 22.6097 25.8252 24.5186 23.4704 24.5186C21.1156 24.5186 19.2067 22.6097 19.2067 20.2548C19.2092 17.9013 21.1166 15.9937 23.4704 15.9911Z" fill="black"/>
<path d="M20.4258 30.9146H26.5171V31.9804H20.4258V30.9146Z" fill="black"/>
<path d="M18.1406 28.7822H28.8001V29.8483H18.1406V28.7822Z" fill="black"/>
<path d="M6.41602 28.7822H7.48205V29.8483H6.41602V28.7822Z" fill="black"/>
<path d="M3.21875 29.8486H4.28457V30.9147H3.21875V29.8486Z" fill="black"/>
<path d="M6.46898 25.7834C9.2519 20.9366 10.998 15.5645 11.5966 10.0076L16.5533 14.9349C16.6525 15.0336 16.7864 15.0893 16.9264 15.0899C16.9552 15.0901 16.9842 15.0878 17.0126 15.083C17.1816 15.0555 17.327 14.9484 17.4033 14.7953C18.408 12.7899 18.0146 10.3663 16.4269 8.78185L15.9911 8.3458H19.7398C20.0342 8.34601 20.2731 8.10756 20.2731 7.81321C20.2733 7.75558 20.2638 7.69839 20.2458 7.64399C19.5379 5.51536 17.5461 4.07993 15.3028 4.08208H14.61L17.2717 1.40494C17.4794 1.19638 17.4785 0.859019 17.27 0.651316C17.2296 0.611108 17.1831 0.577566 17.1322 0.552194C15.1259 -0.45364 12.7009 -0.06038 11.1154 1.52814L10.6065 2.03708C10.4405 2.20414 10.2863 2.38218 10.1444 2.5701C10.0042 2.38218 9.85114 2.20414 9.68644 2.03708L9.1775 1.52814C7.59328 -0.0593049 5.16965 -0.452565 3.16464 0.552194C2.90125 0.683783 2.79439 1.00394 2.92598 1.26711C2.95135 1.31807 2.98489 1.36452 3.0251 1.40494L5.68977 4.08208H4.99011C2.74687 4.07993 0.75477 5.51536 0.04716 7.64399C-0.046156 7.92308 0.104569 8.22496 0.383872 8.31828C0.43827 8.33655 0.495464 8.3458 0.553087 8.3458H4.2982L3.86236 8.78185C2.2747 10.3663 1.88123 12.7899 2.88577 14.7953C2.96232 14.9484 3.10767 15.0555 3.27645 15.083C3.30505 15.0878 3.33386 15.0901 3.36289 15.0899C3.50372 15.0899 3.63875 15.0342 3.73852 14.9349L8.35422 10.3465C7.78271 15.4537 5.8592 20.316 2.78192 24.4318C2.06549 24.2437 1.33918 24.0956 0.606411 23.9885L0.273354 23.9549L0.166708 25.016L0.477403 25.0463C1.01042 25.1227 1.54 25.2304 2.06678 25.3523C1.96014 25.486 1.85349 25.6219 1.74319 25.7537L2.56067 26.4375C6.65647 21.5679 9.09816 15.5223 9.53314 9.17403L10.1466 8.56447L10.6058 9.02116C10.0455 15.8102 7.7152 22.3339 3.84731 27.9415L4.72027 28.5524C5.13933 27.9542 5.53904 27.3334 5.9265 26.7009C8.41958 27.8933 10.6209 29.618 12.3754 31.7533L13.1998 31.0779C12.1623 29.8166 10.9737 28.6876 9.66042 27.7166H31.9982V26.6506H8.08136C7.55888 26.3351 7.01963 26.0494 6.46898 25.7834ZM16.7307 13.6072L11.0995 8.00844C12.5399 7.57841 14.1 7.96866 15.1682 9.02632L15.6772 9.53547C16.7434 10.5998 17.1468 12.1593 16.7307 13.6072ZM18.9267 7.27997H14.5137C13.4859 6.79082 12.3264 6.65235 11.2124 6.88607C11.9879 5.79552 13.2432 5.1479 14.5814 5.14811H15.3009C16.8075 5.14575 18.1963 5.96237 18.9267 7.27997ZM11.3584 2.7907L11.8675 2.28176C12.9327 1.2153 14.4929 0.811716 15.9414 1.22798L12.782 4.4061C11.7566 4.78345 10.8763 5.4745 10.2659 6.38079C10.018 5.07694 10.4269 3.7344 11.3601 2.7907H11.3584ZM8.42237 2.28176L8.93131 2.7907C9.16869 3.03302 9.37467 3.30437 9.54432 3.59808C9.30286 4.15948 9.16503 4.75958 9.13708 5.36979C8.65868 4.95181 8.1076 4.62541 7.51158 4.4061L4.35152 1.22798C5.79964 0.811931 7.35935 1.21551 8.42388 2.28176H8.42237ZM4.98839 5.14811H5.70804C7.04715 5.14682 8.30412 5.79423 9.08053 6.88542C7.96719 6.65256 6.80805 6.79103 5.78093 7.27997H1.36627C2.09646 5.96301 3.48415 5.14661 4.99011 5.14811H4.98839ZM3.5622 13.6072C3.14615 12.1593 3.54973 10.5998 4.61599 9.53547L5.12492 9.02632C5.89166 8.26151 6.93147 7.83342 8.01471 7.83686C8.41442 7.83707 8.81198 7.89405 9.19578 8.00629L3.5622 13.6072Z" fill="black"/>
</g>
<defs>
<clipPath id="clip0_1142_5047">
<rect width="32" height="32" fill="white"/>
</clipPath>
</defs>
</svg>
