<svg width="32" height="24" viewBox="0 0 32 24" fill="none" xmlns="http://www.w3.org/2000/svg">
<path d="M31.5 23H29.455V22.405C30.272 22.2153 30.8477 21.4837 30.84 20.645C30.84 20.595 30.435 15.645 29.09 15.645C27.745 15.645 27.3399 20.615 27.3399 20.645C27.3323 21.4837 27.9079 22.2153 28.725 22.405V23H25.225V14.465L26.7999 16.33C27.2149 16.83 27.95 16.145 27.5299 15.67L14.44 0.169968C14.3463 0.0633652 14.2119 0.0015873 14.07 0C13.9348 0.00476191 13.8064 0.0600636 13.71 0.154984L8.8 5.5H2.42502C2.14889 5.5 1.92502 5.72387 1.92502 6V23H0.5C0.223873 23 0 23.2239 0 23.5C0 23.7761 0.223873 24 0.5 24H31.5C31.7761 24 32 23.7761 32 23.5C32 23.2239 31.7761 23 31.5 23ZM28.055 20.645C28.055 19.72 28.63 16.82 29.055 16.4C29.5 16.82 30.055 19.72 30.055 20.645C30.0654 21.0835 29.8022 21.4822 29.395 21.645C29.395 21.34 29.52 20.645 29.03 20.645C28.5399 20.645 28.685 21.34 28.665 21.645C28.2841 21.4611 28.0499 21.0675 28.07 20.645H28.055ZM24.24 14V23H17.455V14H24.24ZM14.045 1.24502L24 13H12.605V6C12.605 5.72387 12.3811 5.5 12.105 5.5H10.105L14.045 1.24502ZM2.91003 6.5H11.635V23H10.6651V9C10.6651 8.72387 10.4412 8.5 10.1651 8.5H5.82C5.54387 8.5 5.32 8.72387 5.32 9V23H2.91003V6.5ZM9.69498 18.5H6.30502V9.5H9.69498V18.5ZM6.30502 23V19.5H9.69505V23H6.30502ZM12.605 23V14H16.5V23H12.605Z" fill="black"/>
</svg>
