<svg width="32" height="32" viewBox="0 0 32 32" fill="none" xmlns="http://www.w3.org/2000/svg">
<g clip-path="url(#clip0_1142_5042)">
<path d="M0.32185 12.5212C-0.0840249 12.1466 -0.109462 11.514 0.2651 11.1081C2.24998 8.95712 4.60516 7.26274 7.26529 6.07205C10.02 4.83905 12.9588 4.21387 16 4.21387C19.0413 4.21387 21.98 4.83905 24.7347 6.07205C27.3949 7.26274 29.7501 8.95712 31.7349 11.1081C32.1094 11.514 32.084 12.1467 31.6782 12.5212C31.4859 12.6986 31.2427 12.7862 31.0002 12.7862C30.7308 12.7862 30.4622 12.6781 30.265 12.4644C26.5996 8.49212 21.4002 6.21387 16 6.21387C10.5999 6.21387 5.40048 8.49212 1.73498 12.4644C1.36041 12.8703 0.727725 12.8957 0.32185 12.5212ZM25.7124 16.9911C26.0794 17.4039 26.7114 17.4409 27.1242 17.0739C27.5369 16.7069 27.574 16.0749 27.207 15.6622C24.362 12.4626 20.2772 10.6276 16 10.6276C11.7229 10.6276 7.6381 12.4626 4.7931 15.6622C4.4261 16.0749 4.46316 16.707 4.87591 17.074C5.06648 17.2434 5.30366 17.3267 5.54004 17.3267C5.81566 17.3267 6.09016 17.2134 6.28772 16.9912C8.75354 14.2181 12.2935 12.6276 16 12.6276C19.7065 12.6276 23.2465 14.218 25.7124 16.9911ZM21.1309 21.5025C21.3285 21.7483 21.6184 21.8761 21.9109 21.8761C22.1308 21.8761 22.3521 21.8039 22.5368 21.6554C22.9672 21.3094 23.0357 20.68 22.6897 20.2495C21.0509 18.2106 18.6126 17.0412 16 17.0412C13.3875 17.0412 10.9492 18.2106 9.31029 20.2495C8.96429 20.6799 9.03272 21.3094 9.46322 21.6554C9.89372 22.0015 10.5232 21.9329 10.8692 21.5025C12.1265 19.9383 13.9966 19.0412 16 19.0412C18.0035 19.0412 19.8737 19.9383 21.1309 21.5025ZM16 23.4549C17.1942 23.4549 18.1657 24.4264 18.1657 25.6206C18.1657 26.8147 17.1942 27.7862 16 27.7862C14.8059 27.7862 13.8343 26.8147 13.8343 25.6206C13.8343 24.4264 14.8059 23.4549 16 23.4549ZM16 25.4549C15.9102 25.4549 15.8343 25.5307 15.8343 25.6206C15.8343 25.7104 15.9102 25.7862 16 25.7862C16.0899 25.7862 16.1657 25.7103 16.1657 25.6206C16.1657 25.5308 16.0899 25.4549 16 25.4549Z" fill="black"/>
</g>
<defs>
<clipPath id="clip0_1142_5042">
<rect width="32" height="32" fill="white"/>
</clipPath>
</defs>
</svg>
